<svg width="121" height="120" viewBox="0 0 121 120" fill="none" xmlns="http://www.w3.org/2000/svg">
<g clip-path="url(#clip0_677_304)">
<path d="M61.5175 104.194C79.5509 104.194 94.1699 89.5992 94.1699 71.5951C94.1699 53.5911 79.5509 38.9959 61.5175 38.9959C43.4842 38.9959 28.8652 53.5911 28.8652 71.5951C28.8652 89.5992 43.4842 104.194 61.5175 104.194Z" fill="#F5F5F5"/>
<path d="M32.7478 71.5951C32.7478 54.2421 46.3293 40.058 63.4588 39.0549C62.8163 39.0172 62.1696 38.9959 61.5175 38.9959C43.4842 38.9959 28.8652 53.591 28.8652 71.5951C28.8652 89.5992 43.4842 104.194 61.5175 104.194C62.1696 104.194 62.8163 104.173 63.4588 104.135C46.3293 103.132 32.7478 88.9482 32.7478 71.5951Z" fill="#E5E5E5"/>
<path d="M56.6354 47.9146C57.4429 47.9146 58.0974 47.1975 58.0974 46.3128C58.0974 45.4282 57.4429 44.711 56.6354 44.711C55.8279 44.711 55.1733 45.4282 55.1733 46.3128C55.1733 47.1975 55.8279 47.9146 56.6354 47.9146Z" fill="#333333"/>
<path d="M66.3996 47.9146C67.207 47.9146 67.8616 47.1975 67.8616 46.3128C67.8616 45.4282 67.207 44.711 66.3996 44.711C65.5921 44.711 64.9375 45.4282 64.9375 46.3128C64.9375 47.1975 65.5921 47.9146 66.3996 47.9146Z" fill="#333333"/>
<path d="M61.5175 52.468C60.1252 52.468 58.9927 51.3392 58.9927 49.9518V49.4713C58.9927 49.1882 59.2224 48.9585 59.5058 48.9585C59.7891 48.9585 60.0188 49.1882 60.0188 49.4713V49.9518C60.0188 50.7738 60.6911 51.4423 61.5175 51.4423C62.344 51.4423 63.0163 50.7736 63.0163 49.9518V49.4713C63.0163 49.1882 63.246 48.9585 63.5293 48.9585C63.8127 48.9585 64.0424 49.1882 64.0424 49.4713V49.9518C64.0424 51.3392 62.9096 52.468 61.5175 52.468Z" fill="#333333"/>
<path d="M56.1067 51.4939C56.884 51.4939 57.5141 51.0619 57.5141 50.529C57.5141 49.9961 56.884 49.5641 56.1067 49.5641C55.3293 49.5641 54.6992 49.9961 54.6992 50.529C54.6992 51.0619 55.3293 51.4939 56.1067 51.4939Z" fill="#FF5A96"/>
<path d="M66.9279 51.4939C67.7052 51.4939 68.3354 51.0619 68.3354 50.529C68.3354 49.9961 67.7052 49.5641 66.9279 49.5641C66.1506 49.5641 65.5205 49.9961 65.5205 50.529C65.5205 51.0619 66.1506 51.4939 66.9279 51.4939Z" fill="#FF5A96"/>
<path d="M118.425 109.221L102.765 98.441V103.962H69.2714L61.5173 114.479H102.765V120L118.425 109.221Z" fill="#FCC927"/>
<path d="M118.425 109.221L115.686 107.336L105.871 114.092C105.871 112.591 104.654 111.374 103.152 111.374H63.8063L61.5171 114.479H102.765V120L118.425 109.221Z" fill="#FCAA1A"/>
<path d="M92.4506 82.0867C88.0513 94.9039 75.8239 104.147 61.4665 104.147C60.5554 104.147 59.6534 104.108 58.7608 104.035H46.188L51.3575 109.221L46.188 114.481H61.4665C80.2829 114.481 96.2782 102.463 102.141 85.7162L98.9729 79.0457L92.4506 82.0867Z" fill="#0DCCFF"/>
<path d="M92.7975 101.017C96.9408 96.6449 100.153 91.407 102.141 85.7164L100.161 81.548C95.7113 98.6828 80.05 111.377 61.4665 111.377H49.2388L46.188 114.481C47.1688 114.467 62.1885 114.51 62.788 114.459C64.9213 114.398 67.0475 114.174 69.1472 113.801C78.1316 112.21 86.5377 107.648 92.7975 101.017Z" fill="#0DB9D6"/>
<path d="M23.5181 91.8882C26.0163 96.511 29.3401 100.626 33.2952 104.035L58.7604 104.035C46.7068 103.049 36.4832 95.539 31.6768 85.0723L31.0278 92.4923L23.5181 91.8882Z" fill="#FCC927"/>
<path d="M24.454 93.5303C26.815 97.4744 29.8155 101.031 33.2952 104.035H38.6591L36.8904 102.81C33.0876 99.8511 29.8301 96.2595 27.3147 92.1936L23.5181 91.8882C23.8181 92.4431 24.1306 92.9903 24.454 93.5303Z" fill="#FCAA1A"/>
<path d="M46.188 104.035H3.49976L8.66899 109.221L3.49976 114.481H46.188L51.3575 109.221L46.188 104.035Z" fill="#FF5A96"/>
<path d="M6.55052 111.376L5.68386 112.258L3.49976 114.481H46.188L49.2387 111.376H6.55052Z" fill="#FF2488"/>
<path d="M26.8417 46.0922C21.5374 53.2209 18.3989 62.0435 18.3989 71.597C18.3989 78.9386 20.253 85.8486 23.5179 91.8901L31.0276 92.4942L31.6766 85.0742C29.79 80.9655 28.7376 76.4014 28.7376 71.597C28.7376 64.6778 30.921 58.2573 34.6361 52.9773L27.5512 53.5975L26.8417 46.0922Z" fill="#0DCCFF"/>
<path d="M26.8412 46.0908C16.993 59.048 15.6545 77.6449 23.5178 91.8882L27.3145 92.1936C26.1235 90.2685 25.0973 88.2382 24.2614 86.1159C22.4594 81.5413 21.505 76.6236 21.505 71.5949C21.505 64.0513 23.6253 56.9913 27.3035 50.9744L26.8417 46.09C26.8414 46.0905 26.8414 46.0905 26.8412 46.0908Z" fill="#0DB9D6"/>
<path d="M94.7476 44.3754L87.2278 43.7705L86.6143 50.7861C91.3448 56.432 94.1948 63.6885 94.1948 71.5951C94.1948 75.2644 93.5804 78.7933 92.4502 82.0869L98.9725 79.0462L102.141 85.7167C103.689 81.2944 104.533 76.5433 104.533 71.5954C104.534 61.2602 100.862 51.78 94.7476 44.3754Z" fill="#99D100"/>
<path d="M103.547 80.7495C106.378 68.1098 103.063 54.3169 94.7475 44.3757L90.2334 44.0126C97.1606 51.1698 101.428 60.8954 101.428 71.5954C101.428 75.031 100.987 78.3662 100.161 81.5482L102.141 85.7167C102.709 84.0921 103.176 82.4449 103.547 80.7495Z" fill="#6CA42E"/>
<path d="M94.7477 44.3754C86.849 34.81 74.8733 28.709 61.4664 28.709C47.2749 28.709 34.688 35.5454 26.8418 46.0903L27.5513 53.5957L34.6362 52.9754C40.5587 44.5587 50.3764 39.0428 61.4662 39.0428C71.5631 39.0428 80.6059 43.6151 86.6141 50.7859L87.2277 43.7703L94.7477 44.3754Z" fill="#FF5A96"/>
<path d="M93.2495 42.6567C74.9762 22.7556 42.9574 24.4146 26.8418 46.0903L27.3036 50.9746C34.321 39.4959 47.0095 31.8136 61.4664 31.8136C72.7528 31.8136 82.9597 36.4969 90.2336 44.0123L94.7477 44.3754C94.2636 43.7892 93.7638 43.2164 93.2495 42.6567Z" fill="#FF2488"/>
<g opacity="0.5">
<path d="M82.4521 84.4344H40.5827C40.2993 84.4344 40.0696 84.2046 40.0696 83.9216C40.0696 83.6385 40.2993 83.4088 40.5827 83.4088H82.4521C82.7355 83.4088 82.9652 83.6385 82.9652 83.9216C82.9652 84.2046 82.7355 84.4344 82.4521 84.4344Z" fill="#5A5AFF"/>
<path d="M77.2756 93.4898H45.7597C45.4763 93.4898 45.2466 93.26 45.2466 92.977C45.2466 92.6939 45.4763 92.4641 45.7597 92.4641H77.2756C77.5589 92.4641 77.7886 92.6939 77.7886 92.977C77.7886 93.26 77.5589 93.4898 77.2756 93.4898Z" fill="#5A5AFF"/>
<path d="M83.782 62.4057H63.3253C63.042 62.4057 62.8123 62.1759 62.8123 61.8929C62.8123 61.6098 63.042 61.38 63.3253 61.38H83.782C84.0653 61.38 84.2951 61.6098 84.2951 61.8929C84.2951 62.1759 84.0653 62.4057 83.782 62.4057Z" fill="#5A5AFF"/>
<path d="M83.782 71.4611H63.3253C63.042 71.4611 62.8123 71.2313 62.8123 70.9482C62.8123 70.6652 63.042 70.4354 63.3253 70.4354H83.782C84.0653 70.4354 84.2951 70.6652 84.2951 70.9482C84.2951 71.2313 84.0653 71.4611 83.782 71.4611Z" fill="#5A5AFF"/>
</g>
<path d="M39.2532 57.8828H56.3365V74.9585H39.2532V57.8828Z" fill="#7676FF"/>
<path d="M43.1357 57.8828H39.2532V74.9585H56.3365V71.0777H50.9009C46.6122 71.0777 43.1357 67.6026 43.1357 63.3159V57.8828Z" fill="#5A5AFF"/>
<path d="M1.01318 0H45.1804V26.9377H1.01318V0Z" fill="#99D100"/>
<path d="M4.09139 0H1.01318V26.9377H45.1804V23.8608H14.3524C8.68549 23.8608 4.09139 19.2687 4.09139 13.6044V0Z" fill="#6CA42E"/>
<mask id="mask0_677_304" style="mask-type:luminance" maskUnits="userSpaceOnUse" x="1" y="0" width="45" height="27">
<path d="M1.01318 0H45.1804V26.9377H1.01318V0Z" fill="white"/>
</mask>
<g mask="url(#mask0_677_304)">
<path d="M37.7398 4.21205L33.5545 5.17692C33.2783 5.24051 33.1063 5.51589 33.1698 5.79179C33.2337 6.06769 33.5091 6.24051 33.7852 6.17615L36.7219 5.49923L29.8504 15.1403L21.8591 10.8785C21.6191 10.7505 21.3209 10.8318 21.1796 11.0641L15.0309 21.1433L7.01677 18.3964C6.80292 18.3236 6.56728 18.3982 6.43472 18.5808L0.597795 26.6369C0.431641 26.8664 0.482923 27.1869 0.712154 27.3531C0.803179 27.419 0.908308 27.4505 1.01267 27.4505C1.17138 27.4505 1.32831 27.3769 1.42856 27.2385L7.04318 19.4897L15.0878 22.2472C15.3165 22.3246 15.567 22.2344 15.6924 22.029L21.8037 12.0113L29.7652 16.2572C29.9929 16.3785 30.2752 16.312 30.4245 16.1023L37.3932 6.32512L37.2916 9.41077C37.2824 9.69384 37.5042 9.93076 37.7875 9.94025C37.7932 9.94025 37.7991 9.94051 37.8047 9.94051C38.0804 9.94051 38.3081 9.72179 38.3173 9.44461L38.4732 4.7041C38.4604 4.12384 37.8457 4.15589 37.7398 4.21205Z" fill="white"/>
</g>
<g opacity="0.6">
<path d="M10.3314 5.7851H6.18984C5.9065 5.7851 5.67676 5.55536 5.67676 5.27228C5.67676 4.9892 5.9065 4.75946 6.18984 4.75946H10.3314C10.6147 4.75946 10.8445 4.9892 10.8445 5.27228C10.8445 5.55536 10.6147 5.7851 10.3314 5.7851Z" fill="white"/>
<path d="M12.6609 10.9595H6.18984C5.9065 10.9595 5.67676 10.7297 5.67676 10.4467C5.67676 10.1636 5.9065 9.93384 6.18984 9.93384H12.6609C12.9442 9.93384 13.1739 10.1636 13.1739 10.4467C13.1739 10.7297 12.9442 10.9595 12.6609 10.9595Z" fill="white"/>
</g>
<path d="M70.2825 5.97028H121.015V36.9123H70.2825V5.97028Z" fill="#F5F5F5"/>
<path d="M70.2825 22.3611H80.4289V36.9124H70.2825V22.3611Z" fill="#0DCCFF"/>
<path d="M72.8687 22.3611H70.2803V36.9124H80.4267V34.3252H78.0454C75.1864 34.3252 72.8685 32.0085 72.8685 29.1508V22.3611H72.8687Z" fill="#0DB9D6"/>
<path d="M90.5732 26.8287H100.72V36.9121H90.5732V26.8287Z" fill="#FF5A96"/>
<path d="M93.1617 26.8287H90.5732V36.9121H100.72V34.3249H98.3384C95.4794 34.3249 93.1614 32.0082 93.1614 29.1505V26.8287H93.1617Z" fill="#FF2488"/>
<path d="M100.72 13.4254H110.866V36.9121H100.72V13.4254Z" fill="#99D100"/>
<path d="M103.308 13.4276H100.72V36.9142H110.866V34.327H108.485C105.626 34.327 103.308 32.0104 103.308 29.1527V13.4276H103.308Z" fill="#6CA42E"/>
<path d="M110.866 17.8934H121.013V36.9123H110.866V17.8934Z" fill="#7676FF"/>
<path d="M113.455 17.8934H110.866V36.9123H121.013V34.3252H118.632C115.773 34.3252 113.455 32.0085 113.455 29.1508L113.455 17.8934Z" fill="#5A5AFF"/>
<path d="M80.427 17.8934H90.5734V36.9123H80.427V17.8934Z" fill="#FCC927"/>
<path d="M83.0155 17.8934H80.427V36.9123H90.5737V34.3252H88.1924C85.3334 34.3252 83.0155 32.0085 83.0155 29.1508V17.8934Z" fill="#FCAA1A"/>
<path d="M1.63721 59.2567V64.4187L7.149 60.5472L12.6608 64.4187V59.2567L7.149 55.3851L1.63721 59.2567Z" fill="#FCC927"/>
<path d="M7.149 43.7677L1.63721 47.639V52.801L7.149 48.9295L12.6608 52.801V47.639L7.149 43.7677Z" fill="#7676FF"/>
<path d="M7.149 67.0157L1.63721 70.8869V76.049L7.149 72.1775L12.6608 76.049V70.8869L7.149 67.0157Z" fill="#7676FF"/>
<path d="M7.149 78.6446L1.63721 82.5162V87.678L7.149 83.8067L12.6608 87.678V82.5162L7.149 78.6446Z" fill="#FCC927"/>
</g>
<defs>
<clipPath id="clip0_677_304">
<rect width="120" height="120" fill="white" transform="translate(0.5)"/>
</clipPath>
</defs>
</svg>
