<svg width="21" height="20" viewBox="0 0 21 20" fill="none" xmlns="http://www.w3.org/2000/svg">
<path d="M0.75 13.7009C0.0325611 14.1151 -0.213252 15.0325 0.200962 15.7499C0.615175 16.4674 1.53256 16.7132 2.25 16.299L0.75 13.7009ZM20.2694 5.38817C20.4838 4.58797 20.0089 3.76546 19.2087 3.55105L6.16874 0.0569931C5.36854 -0.15742 4.54603 0.317454 4.33162 1.11765C4.11721 1.91785 4.59208 2.74036 5.39228 2.95477L16.9834 6.0606L13.8776 17.6517C13.6631 18.4519 14.138 19.2744 14.9382 19.4888C15.7384 19.7032 16.5609 19.2284 16.7753 18.4282L20.2694 5.38817ZM2.25 16.299L19.5705 6.29898L18.0705 3.7009L0.75 13.7009L2.25 16.299Z" fill="white"/>
</svg>
