<svg width="222" height="222" viewBox="0 0 222 222" fill="none" xmlns="http://www.w3.org/2000/svg">
<path d="M24.2812 27.75C24.2812 25.8422 25.8422 24.2812 27.75 24.2812C29.6578 24.2812 31.2188 25.8422 31.2188 27.75C31.2188 29.6578 29.6578 31.2188 27.75 31.2188C25.8422 31.2188 24.2812 29.6578 24.2812 27.75ZM45.0938 31.2188C47.0016 31.2188 48.5625 29.6578 48.5625 27.75C48.5625 25.8422 47.0016 24.2812 45.0938 24.2812C43.1859 24.2812 41.625 25.8422 41.625 27.75C41.625 29.6578 43.1859 31.2188 45.0938 31.2188ZM62.4375 31.2188C64.3453 31.2188 65.9062 29.6578 65.9062 27.75C65.9062 25.8422 64.3453 24.2812 62.4375 24.2812C60.5297 24.2812 58.9688 25.8422 58.9688 27.75C58.9688 29.6578 60.5297 31.2188 62.4375 31.2188ZM128.344 69.375H149.156C151.064 69.375 152.625 67.8141 152.625 65.9062C152.625 63.9984 151.064 62.4375 149.156 62.4375H128.344C126.436 62.4375 124.875 63.9984 124.875 65.9062C124.875 67.8141 126.436 69.375 128.344 69.375ZM107.531 90.1875H128.344C130.252 90.1875 131.812 88.6266 131.812 86.7188C131.812 84.8109 130.252 83.25 128.344 83.25H107.531C105.623 83.25 104.062 84.8109 104.062 86.7188C104.062 88.6266 105.623 90.1875 107.531 90.1875ZM176.906 104.062H156.094C154.186 104.062 152.625 105.623 152.625 107.531C152.625 109.439 154.186 111 156.094 111H176.906C178.814 111 180.375 109.439 180.375 107.531C180.375 105.623 178.814 104.062 176.906 104.062ZM52.0312 131.812H72.8438C74.7516 131.812 76.3125 130.252 76.3125 128.344C76.3125 126.436 74.7516 124.875 72.8438 124.875H52.0312C50.1234 124.875 48.5625 126.436 48.5625 128.344C48.5625 130.252 50.1234 131.812 52.0312 131.812ZM52.0312 145.688H31.2188C29.3109 145.688 27.75 147.248 27.75 149.156C27.75 151.064 29.3109 152.625 31.2188 152.625H52.0312C53.9391 152.625 55.5 151.064 55.5 149.156C55.5 147.248 53.9391 145.688 52.0312 145.688ZM107.531 69.375H114.469C116.377 69.375 117.938 67.8141 117.938 65.9062C117.938 63.9984 116.377 62.4375 114.469 62.4375H107.531C105.623 62.4375 104.062 63.9984 104.062 65.9062C104.062 67.8141 105.623 69.375 107.531 69.375ZM176.906 83.25H169.969C168.061 83.25 166.5 84.8109 166.5 86.7188C166.5 88.6266 168.061 90.1875 169.969 90.1875H176.906C178.814 90.1875 180.375 88.6266 180.375 86.7188C180.375 84.8109 178.814 83.25 176.906 83.25ZM142.219 104.062H135.281C133.373 104.062 131.812 105.623 131.812 107.531C131.812 109.439 133.373 111 135.281 111H142.219C144.127 111 145.688 109.439 145.688 107.531C145.688 105.623 144.127 104.062 142.219 104.062ZM31.2188 124.875C29.3109 124.875 27.75 126.436 27.75 128.344C27.75 130.252 29.3109 131.812 31.2188 131.812H38.1562C40.0641 131.812 41.625 130.252 41.625 128.344C41.625 126.436 40.0641 124.875 38.1562 124.875H31.2188ZM163.031 69.375H176.906C178.814 69.375 180.375 67.8141 180.375 65.9062C180.375 63.9984 178.814 62.4375 176.906 62.4375H163.031C161.123 62.4375 159.562 63.9984 159.562 65.9062C159.562 67.8141 161.123 69.375 163.031 69.375ZM104.062 124.875H86.7188C84.8109 124.875 83.25 126.436 83.25 128.344C83.25 130.252 84.8109 131.812 86.7188 131.812H104.062C105.97 131.812 107.531 130.252 107.531 128.344C107.531 126.436 105.97 124.875 104.062 124.875ZM104.062 145.688H65.9062C63.9984 145.688 62.4375 147.248 62.4375 149.156C62.4375 151.064 63.9984 152.625 65.9062 152.625H104.062C105.97 152.625 107.531 151.064 107.531 149.156C107.531 147.248 105.97 145.688 104.062 145.688ZM138.75 86.7188C138.75 88.6266 140.311 90.1875 142.219 90.1875H156.094C158.002 90.1875 159.562 88.6266 159.562 86.7188C159.562 84.8109 158.002 83.25 156.094 83.25H142.219C140.311 83.25 138.75 84.8109 138.75 86.7188ZM124.875 107.531C124.875 105.623 123.314 104.062 121.406 104.062H107.531C105.623 104.062 104.062 105.623 104.062 107.531C104.062 109.439 105.623 111 107.531 111H121.406C123.314 111 124.875 109.439 124.875 107.531ZM75.0291 97.6106C75.7228 98.4431 76.6941 98.8594 77.7 98.8594C78.4978 98.8594 79.2609 98.5819 79.92 98.0616L92.4075 87.6553C93.2053 86.9963 93.6562 86.025 93.6562 84.9844C93.6562 83.9437 93.2053 82.9725 92.4075 82.3134L79.92 71.9072C78.4284 70.6931 76.2431 70.8666 75.0291 72.3581C73.815 73.8497 73.9884 76.035 75.48 77.2491L84.7763 84.9844L75.48 92.7197C74.0231 93.9337 73.815 96.1191 75.0291 97.6106ZM40.2375 98.8594C41.2434 98.8594 42.2147 98.4431 42.9084 97.6106C44.1225 96.1537 43.9491 93.9337 42.4575 92.7197L33.1613 84.9844L42.4575 77.2491C43.9144 76.035 44.1225 73.8497 42.9084 72.3581C41.6944 70.8666 39.5091 70.6931 38.0175 71.9072L25.53 82.3134C24.7322 82.9725 24.2812 83.9437 24.2812 84.9844C24.2812 86.025 24.7322 86.9963 25.53 87.6553L38.0175 98.0616C38.6766 98.6166 39.4397 98.8594 40.2375 98.8594ZM52.9331 109.162C53.2106 109.231 53.4881 109.266 53.7656 109.266C55.3266 109.266 56.7487 108.225 57.1303 106.629L67.5366 65.0044C67.9875 63.1312 66.8775 61.2581 65.0044 60.8072C63.1312 60.3216 61.2581 61.4663 60.8072 63.3394L50.4009 104.964C49.95 106.838 51.06 108.711 52.9331 109.162ZM211.594 145.688C211.594 148.358 210.553 150.787 208.888 152.625C210.553 154.463 211.594 156.892 211.594 159.562V173.438C211.594 176.108 210.553 178.537 208.888 180.375C210.553 182.213 211.594 184.642 211.594 187.312V201.188C211.594 206.911 206.911 211.594 201.188 211.594H124.875C119.152 211.594 114.469 206.911 114.469 201.188V187.312C114.469 184.642 115.509 182.213 117.174 180.375C115.509 178.537 114.469 176.108 114.469 173.438H20.8125C15.0891 173.438 10.4062 168.755 10.4062 163.031V20.8125C10.4062 15.0891 15.0891 10.4062 20.8125 10.4062H187.312C193.036 10.4062 197.719 15.0891 197.719 20.8125V121.406H201.188C206.911 121.406 211.594 126.089 211.594 131.812V145.688ZM201.188 128.344H124.875C122.967 128.344 121.406 129.905 121.406 131.812V145.688C121.406 147.595 122.967 149.156 124.875 149.156H201.188C203.095 149.156 204.656 147.595 204.656 145.688V131.812C204.656 129.905 203.095 128.344 201.188 128.344ZM201.188 156.094H124.875C122.967 156.094 121.406 157.655 121.406 159.562V173.438C121.406 175.345 122.967 176.906 124.875 176.906H201.188C203.095 176.906 204.656 175.345 204.656 173.438V159.562C204.656 157.655 203.095 156.094 201.188 156.094ZM187.312 17.3438H82.8337L80.2322 38.1562H190.781V20.8125C190.781 18.9047 189.22 17.3438 187.312 17.3438ZM17.3438 20.8125V38.1562H73.26L75.8616 17.3438H20.8125C18.9047 17.3438 17.3438 18.9047 17.3438 20.8125ZM114.469 166.5V159.562C114.469 156.892 115.509 154.463 117.174 152.625C115.509 150.787 114.469 148.358 114.469 145.688V131.812C114.469 126.089 119.152 121.406 124.875 121.406H190.781V45.0938H17.3438V163.031C17.3438 164.939 18.9047 166.5 20.8125 166.5H114.469ZM204.656 187.312C204.656 185.405 203.095 183.844 201.188 183.844H124.875C122.967 183.844 121.406 185.405 121.406 187.312V201.188C121.406 203.095 122.967 204.656 124.875 204.656H201.188C203.095 204.656 204.656 203.095 204.656 201.188V187.312ZM131.812 142.219H136.981C138.889 142.219 140.45 140.658 140.45 138.75C140.45 136.842 138.889 135.281 136.981 135.281H131.812C129.905 135.281 128.344 136.842 128.344 138.75C128.344 140.658 129.905 142.219 131.812 142.219ZM149.156 142.219H154.325C156.233 142.219 157.793 140.658 157.793 138.75C157.793 136.842 156.233 135.281 154.325 135.281H149.156C147.248 135.281 145.688 136.842 145.688 138.75C145.688 140.658 147.248 142.219 149.156 142.219ZM166.5 142.219H195.95C197.858 142.219 199.418 140.658 199.418 138.75C199.418 136.842 197.858 135.281 195.95 135.281H166.5C164.592 135.281 163.031 136.842 163.031 138.75C163.031 140.658 164.592 142.219 166.5 142.219ZM131.812 169.969H136.981C138.889 169.969 140.45 168.408 140.45 166.5C140.45 164.592 138.889 163.031 136.981 163.031H131.812C129.905 163.031 128.344 164.592 128.344 166.5C128.344 168.408 129.905 169.969 131.812 169.969ZM149.156 169.969H154.325C156.233 169.969 157.793 168.408 157.793 166.5C157.793 164.592 156.233 163.031 154.325 163.031H149.156C147.248 163.031 145.688 164.592 145.688 166.5C145.688 168.408 147.248 169.969 149.156 169.969ZM166.5 169.969H195.95C197.858 169.969 199.418 168.408 199.418 166.5C199.418 164.592 197.858 163.031 195.95 163.031H166.5C164.592 163.031 163.031 164.592 163.031 166.5C163.031 168.408 164.592 169.969 166.5 169.969ZM136.981 190.781H131.812C129.905 190.781 128.344 192.342 128.344 194.25C128.344 196.158 129.905 197.719 131.812 197.719H136.981C138.889 197.719 140.45 196.158 140.45 194.25C140.45 192.342 138.889 190.781 136.981 190.781ZM154.325 190.781H149.156C147.248 190.781 145.688 192.342 145.688 194.25C145.688 196.158 147.248 197.719 149.156 197.719H154.325C156.233 197.719 157.793 196.158 157.793 194.25C157.793 192.342 156.233 190.781 154.325 190.781ZM195.95 190.781H166.5C164.592 190.781 163.031 192.342 163.031 194.25C163.031 196.158 164.592 197.719 166.5 197.719H195.95C197.858 197.719 199.418 196.158 199.418 194.25C199.418 192.342 197.858 190.781 195.95 190.781Z" fill="black"/>
</svg>
