<svg width="13" height="14" viewBox="0 0 13 14" fill="none" xmlns="http://www.w3.org/2000/svg">
<path d="M6.66659 0.5C8.34629 0.5 9.9572 1.16726 11.1449 2.35499C12.3327 3.54272 12.9999 5.15363 12.9999 6.83333C12.9999 8.51304 12.3327 10.1239 11.1449 11.3117C9.9572 12.4994 8.34629 13.1667 6.66659 13.1667C4.98688 13.1667 3.37597 12.4994 2.18824 11.3117C1.00051 10.1239 0.333252 8.51304 0.333252 6.83333C0.333252 5.15363 1.00051 3.54272 2.18824 2.35499C3.37597 1.16726 4.98688 0.5 6.66659 0.5ZM6.66659 1.16667C5.16369 1.16667 3.72235 1.76369 2.65965 2.8264C1.59694 3.8891 0.999919 5.33044 0.999919 6.83333C0.999919 8.33623 1.59694 9.77757 2.65965 10.8403C3.72235 11.903 5.16369 12.5 6.66659 12.5C7.41074 12.5 8.14761 12.3534 8.83512 12.0687C9.52264 11.7839 10.1473 11.3665 10.6735 10.8403C11.1997 10.3141 11.6171 9.68939 11.9019 9.00187C12.1867 8.31436 12.3333 7.57749 12.3333 6.83333C12.3333 5.33044 11.7362 3.8891 10.6735 2.8264C9.61082 1.76369 8.16948 1.16667 6.66659 1.16667ZM6.33325 3.16667H6.99992V6.78L10.1333 8.58667L9.79992 9.16667L6.33325 7.16667V3.16667Z" fill="#4D4D4D"/>
</svg>
