<svg width="223" height="222" viewBox="0 0 223 222" fill="none" xmlns="http://www.w3.org/2000/svg">
<g clip-path="url(#clip0_677_489)">
<path d="M193.127 0H29.8725C13.6765 0 0.5 13.1765 0.5 29.3725V159.976C0.5 175.109 12.0032 187.602 26.7237 189.178V202.892C26.7237 213.428 35.2959 222 45.8318 222H125.136C135.67 222 144.24 213.428 144.24 202.892V189.35H193.127C209.323 189.35 222.5 176.173 222.5 159.977V29.3725C222.5 13.1765 209.324 0 193.127 0ZM118.533 159.513L130.309 168.662L116.415 174.391C116.851 171.33 117.517 166.647 118.533 159.513ZM120.666 152.934C127.906 143.617 149.631 115.659 156.744 106.504L172.232 118.542C172.19 118.597 136.211 164.898 136.157 164.969L120.666 152.934ZM188.253 97.9258L186.242 100.514L170.753 88.4774L172.762 85.8906C176.081 81.6201 182.257 80.8449 186.526 84.1592C190.796 87.4806 191.57 93.6558 188.253 97.9258ZM166.762 93.6129L182.249 105.648L176.222 113.406L160.735 101.368L166.762 93.6129ZM193.127 182.845H144.241V165.165C149.822 157.98 187.329 109.714 193.39 101.916C198.906 94.8161 197.618 84.5477 190.517 79.0233C183.412 73.5089 173.144 74.8001 167.627 81.9002C163.464 87.2573 157.102 95.444 144.241 111.996V84.4077C144.241 73.8735 135.671 65.3036 125.137 65.3036H45.8322C35.2959 65.3036 26.7242 73.8735 26.7242 84.4077V130.72C26.7242 132.516 28.1798 133.972 29.9761 133.972C31.7725 133.972 33.2281 132.516 33.2281 130.72V84.4077C33.2281 77.4602 38.8822 71.8075 45.8322 71.8075H125.137C132.084 71.8075 137.737 77.4598 137.737 84.4077V120.366C133.38 125.972 128.757 131.923 124.707 137.134H49.5676C47.7713 137.134 46.3157 138.589 46.3157 140.386C46.3157 142.182 47.7713 143.637 49.5676 143.637H119.653C116.638 147.518 114.394 150.406 113.535 151.511C113.185 151.961 112.954 152.528 112.883 153.049L112.36 156.724H49.5676C47.7713 156.724 46.3157 158.18 46.3157 159.976C46.3157 161.773 47.7713 163.228 49.5676 163.228H111.435L109.572 176.315H49.5676C47.7713 176.315 46.3157 177.771 46.3157 179.567C46.3157 181.364 47.7713 182.819 49.5676 182.819H112.271C112.842 182.839 113.387 182.7 113.795 182.507L137.737 172.634V202.891C137.737 209.841 132.084 215.496 125.137 215.496H45.8322C38.8822 215.496 33.2281 209.841 33.2281 202.891C33.2281 196.361 33.2281 152.357 33.2281 145.896C33.2281 144.099 31.7725 142.644 29.9761 142.644C28.1798 142.644 26.7242 144.099 26.7242 145.896V182.623C15.5995 181.084 7.00391 171.518 7.00391 159.976V55.4783H169.216C171.012 55.4783 172.468 54.0227 172.468 52.2264C172.468 50.43 171.012 48.9744 169.216 48.9744H7.00391V29.3725C7.00391 16.7627 17.2627 6.50391 29.8725 6.50391H193.127C205.737 6.50391 215.996 16.7627 215.996 29.3725V48.9744H184.391C182.595 48.9744 181.139 50.43 181.139 52.2264C181.139 54.0227 182.595 55.4783 184.391 55.4783H215.996V159.976C215.996 172.586 205.737 182.845 193.127 182.845Z" fill="white"/>
<path d="M28.2405 16.3252C21.946 16.3252 16.8257 21.4455 16.8257 27.74C16.8257 34.034 21.946 39.1543 28.2405 39.1543C34.5345 39.1543 39.6548 34.034 39.6548 27.74C39.6548 21.4459 34.5341 16.3252 28.2405 16.3252ZM28.2405 32.6509C25.5327 32.6509 23.3296 30.4482 23.3296 27.7404C23.3296 25.0326 25.5327 22.8295 28.2405 22.8295C30.9483 22.8295 33.1509 25.0326 33.1509 27.7404C33.1509 30.4482 30.9483 32.6509 28.2405 32.6509Z" fill="white"/>
<path d="M60.8909 16.3252C54.5964 16.3252 49.4761 21.4455 49.4761 27.74C49.4761 34.034 54.5968 39.1543 60.8909 39.1543C67.1849 39.1543 72.3057 34.034 72.3057 27.74C72.3057 21.4459 67.1853 16.3252 60.8909 16.3252ZM60.8909 32.6509C58.1831 32.6509 55.98 30.4482 55.98 27.7404C55.98 25.0326 58.1831 22.8295 60.8909 22.8295C63.5987 22.8295 65.8017 25.0326 65.8017 27.7404C65.8017 30.4482 63.5987 32.6509 60.8909 32.6509Z" fill="white"/>
<path d="M96.8067 16.3252C90.5126 16.3252 85.3923 21.4455 85.3923 27.74C85.3923 34.034 90.5131 39.1543 96.8067 39.1543C103.101 39.1543 108.221 34.034 108.221 27.74C108.221 21.4459 103.101 16.3252 96.8067 16.3252ZM96.8067 32.6509C94.0989 32.6509 91.8962 30.4482 91.8962 27.7404C91.8962 25.0326 94.0989 22.8295 96.8067 22.8295C99.5145 22.8295 101.718 25.0326 101.718 27.7404C101.718 30.4482 99.5145 32.6509 96.8067 32.6509Z" fill="white"/>
<path d="M206.175 27.7405C206.175 21.446 201.054 16.3257 194.76 16.3257H129.458C123.164 16.3257 118.043 21.446 118.043 27.7405C118.043 34.0345 123.164 39.1548 129.458 39.1548H194.76C201.054 39.1548 206.175 34.0341 206.175 27.7405ZM124.547 27.7405C124.547 25.0327 126.75 22.8296 129.458 22.8296H194.76C197.467 22.8296 199.671 25.0327 199.671 27.7405C199.671 30.4483 197.467 32.6509 194.76 32.6509H129.458C126.75 32.6509 124.547 30.4483 124.547 27.7405Z" fill="white"/>
<path d="M52.8327 104.457H118.134C123.528 104.457 127.917 100.068 127.917 94.6743C127.917 89.2808 123.528 84.892 118.134 84.892H52.8327C47.4392 84.892 43.0508 89.2804 43.0508 94.6743C43.0508 100.068 47.4392 104.457 52.8327 104.457ZM52.8327 91.3963H118.134C119.942 91.3963 121.413 92.8671 121.413 94.6747C121.413 96.4824 119.942 97.9531 118.134 97.9531H52.8327C51.025 97.9531 49.5547 96.4824 49.5547 94.6747C49.5547 92.8671 51.025 91.3963 52.8327 91.3963Z" fill="white"/>
<path d="M124.665 117.543H49.5676C47.7712 117.543 46.3157 118.999 46.3157 120.795C46.3157 122.592 47.7712 124.047 49.5676 124.047H124.665C126.461 124.047 127.917 122.592 127.917 120.795C127.917 118.999 126.461 117.543 124.665 117.543Z" fill="white"/>
<path d="M49.5676 202.409H88.7489C90.5453 202.409 92.0008 200.954 92.0008 199.157C92.0008 197.361 90.5453 195.906 88.7489 195.906H49.5676C47.7712 195.906 46.3157 197.361 46.3157 199.157C46.3157 200.954 47.7712 202.409 49.5676 202.409Z" fill="white"/>
</g>
<defs>
<clipPath id="clip0_677_489">
<rect width="222" height="222" fill="white" transform="translate(0.5)"/>
</clipPath>
</defs>
</svg>
