<svg width="222" height="222" viewBox="0 0 222 222" fill="none" xmlns="http://www.w3.org/2000/svg">
<path d="M204.656 52.0312H197.719V48.5625H201.188C203.947 48.5625 206.594 47.4661 208.546 45.5146C210.497 43.563 211.594 40.9161 211.594 38.1562C211.594 35.3963 210.497 32.7495 208.546 30.7979C206.594 28.8464 203.947 27.75 201.188 27.75H197.719V10.4062C197.724 9.86316 197.597 9.32696 197.349 8.84364C197.102 8.36031 196.74 7.94428 196.297 7.63124C195.867 7.30592 195.367 7.08618 194.836 6.98977C194.306 6.89337 193.761 6.92298 193.244 7.07624L148.636 20.8125H124.875C123.955 20.8125 123.073 21.1779 122.422 21.8285C121.772 22.479 121.406 23.3613 121.406 24.2812V27.75H114.469C113.549 27.75 112.666 28.1154 112.016 28.766C111.365 29.4165 111 30.2988 111 31.2187V45.0937C111 46.0137 111.365 46.896 112.016 47.5465C112.666 48.197 113.549 48.5625 114.469 48.5625H121.406V52.0312H100.594V20.8125C100.594 19.8925 100.228 19.0102 99.5778 18.3597C98.9273 17.7092 98.045 17.3437 97.125 17.3437H27.75C26.83 17.3437 25.9477 17.7092 25.2972 18.3597C24.6467 19.0102 24.2812 19.8925 24.2812 20.8125V52.0312H17.3438C14.5864 52.0395 11.9443 53.1385 9.99452 55.0883C8.04475 57.038 6.94574 59.6801 6.9375 62.4375V173.437C6.94574 176.195 8.04475 178.837 9.99452 180.787C11.9443 182.736 14.5864 183.836 17.3438 183.844H97.125V194.25H76.3125C75.3925 194.25 74.5102 194.615 73.8597 195.266C73.2092 195.916 72.8438 196.799 72.8438 197.719V211.594C72.8438 212.514 73.2092 213.396 73.8597 214.047C74.5102 214.697 75.3925 215.062 76.3125 215.062H145.688C146.607 215.062 147.49 214.697 148.14 214.047C148.791 213.396 149.156 212.514 149.156 211.594V197.719C149.156 196.799 148.791 195.916 148.14 195.266C147.49 194.615 146.607 194.25 145.688 194.25H124.875V183.844H204.656C207.414 183.836 210.056 182.736 212.005 180.787C213.955 178.837 215.054 176.195 215.062 173.437V62.4375C215.054 59.6801 213.955 57.038 212.005 55.0883C210.056 53.1385 207.414 52.0395 204.656 52.0312ZM197.719 34.6875H201.188C202.107 34.6875 202.99 35.0529 203.64 35.7035C204.291 36.354 204.656 37.2363 204.656 38.1562C204.656 39.0762 204.291 39.9585 203.64 40.609C202.99 41.2595 202.107 41.625 201.188 41.625H197.719V34.6875ZM152.625 26.8481L190.781 15.0891V61.2234L152.625 49.4644V26.8481ZM128.344 27.75H145.688V48.5625H128.344V27.75ZM138.23 55.5L135.732 72.8437H131.812V55.5H138.23ZM117.938 41.625V34.6875H121.406V41.625H117.938ZM31.2188 24.2812H93.6562V72.8437H31.2188V24.2812ZM142.219 201.187V208.125H79.7812V201.187H142.219ZM104.062 194.25V183.844H117.938V194.25H104.062ZM208.125 173.437C208.125 174.357 207.76 175.24 207.109 175.89C206.459 176.541 205.576 176.906 204.656 176.906H17.3438C16.4238 176.906 15.5415 176.541 14.891 175.89C14.2405 175.24 13.875 174.357 13.875 173.437V169.969H208.125V173.437ZM208.125 163.031H13.875V62.4375C13.875 61.5175 14.2405 60.6352 14.891 59.9847C15.5415 59.3342 16.4238 58.9687 17.3438 58.9687H24.2812V76.3125C24.2812 77.2325 24.6467 78.1148 25.2972 78.7653C25.9477 79.4158 26.83 79.7812 27.75 79.7812H97.125C98.045 79.7812 98.9273 79.4158 99.5778 78.7653C100.228 78.1148 100.594 77.2325 100.594 76.3125V58.9687H124.875V76.3125C124.875 77.2325 125.24 78.1148 125.891 78.7653C126.541 79.4158 127.424 79.7812 128.344 79.7812H138.75C139.586 79.7811 140.393 79.4792 141.024 78.9312C141.655 78.3831 142.067 77.6256 142.184 76.7981L145.237 55.5H148.636L193.244 69.2362C193.57 69.3356 193.909 69.3824 194.25 69.375C195.166 69.3616 196.04 68.9918 196.688 68.3442C197.336 67.6965 197.705 66.822 197.719 65.9062V58.9687H204.656C205.576 58.9687 206.459 59.3342 207.109 59.9847C207.76 60.6352 208.125 61.5175 208.125 62.4375V163.031Z" fill="white"/>
<path d="M24.2812 156.094H114.469C115.389 156.094 116.271 155.728 116.922 155.078C117.572 154.427 117.938 153.545 117.938 152.625V97.125C117.938 96.205 117.572 95.3227 116.922 94.6722C116.271 94.0217 115.389 93.6562 114.469 93.6562H24.2812C23.3613 93.6562 22.479 94.0217 21.8285 94.6722C21.178 95.3227 20.8125 96.205 20.8125 97.125V152.625C20.8125 153.545 21.178 154.427 21.8285 155.078C22.479 155.728 23.3613 156.094 24.2812 156.094ZM27.75 149.156V103.331L67.5574 127.83C68.104 128.167 68.7332 128.345 69.375 128.345C70.0168 128.345 70.646 128.167 71.1926 127.83L111 103.331V149.156H27.75ZM36.5363 100.594H102.214L69.375 120.803L36.5363 100.594Z" fill="white"/>
<path d="M128.344 135.281H135.281V145.688C135.281 146.607 135.647 147.49 136.297 148.14C136.948 148.791 137.83 149.156 138.75 149.156H197.719C198.639 149.156 199.521 148.791 200.172 148.14C200.822 147.49 201.188 146.607 201.188 145.688V104.062C201.188 103.143 200.822 102.26 200.172 101.61C199.521 100.959 198.639 100.594 197.719 100.594H194.25V90.1875C194.25 89.2675 193.885 88.3852 193.234 87.7347C192.584 87.0842 191.701 86.7188 190.781 86.7188H128.344C127.424 86.7188 126.541 87.0842 125.891 87.7347C125.24 88.3852 124.875 89.2675 124.875 90.1875V131.812C124.875 132.732 125.24 133.615 125.891 134.265C126.541 134.916 127.424 135.281 128.344 135.281ZM194.25 142.219H142.219V107.531H194.25V142.219ZM131.812 93.6562H187.312V100.594H138.75C137.83 100.594 136.948 100.959 136.297 101.61C135.647 102.26 135.281 103.143 135.281 104.062V128.344H131.812V93.6562Z" fill="white"/>
<path d="M149.156 114.469H156.094V121.406H149.156V114.469Z" fill="white"/>
<path d="M163.031 114.469H187.312V121.406H163.031V114.469Z" fill="white"/>
<path d="M149.156 128.344H163.031V135.281H149.156V128.344Z" fill="white"/>
<path d="M169.969 128.344H187.312V135.281H169.969V128.344Z" fill="white"/>
<path d="M53.6754 61.9207C54.1784 62.2317 54.7524 62.409 55.3431 62.4357C55.9339 62.4624 56.5216 62.3377 57.0505 62.0733L77.863 51.6671C78.4403 51.3794 78.9258 50.9365 79.2653 50.3881C79.6047 49.8396 79.7845 49.2075 79.7845 48.5625C79.7845 47.9176 79.6047 47.2854 79.2653 46.737C78.9258 46.1886 78.4403 45.7457 77.863 45.458L57.0505 35.0517C56.5216 34.7874 55.9338 34.6627 55.3431 34.6895C54.7523 34.7162 54.1782 34.8936 53.6753 35.2046C53.1724 35.5157 52.7574 35.9501 52.4696 36.4667C52.1819 36.9834 52.031 37.5649 52.0313 38.1563V58.9688C52.0309 59.5602 52.1818 60.1418 52.4696 60.6585C52.7574 61.1751 53.1725 61.6096 53.6754 61.9207ZM58.9688 43.7687L68.5564 48.5625L58.9688 53.3563V43.7687Z" fill="white"/>
</svg>
