<svg width="113" height="114" viewBox="0 0 113 114" fill="none" xmlns="http://www.w3.org/2000/svg">
<path d="M8.91749 84.9294L21.5207 91.9917L28.5709 104.583C22.6309 108.725 13.7589 112.332 5.37383 113.454C2.31669 113.866 -0.35354 111.196 0.0455483 108.151C1.16817 99.7411 4.77459 90.8691 8.91749 84.9294Z" fill="#E8EDF2"/>
<path d="M0.0458215 108.151C-0.157073 109.699 0.437903 111.145 1.46913 112.143L21.5564 92.056L21.521 91.9914L8.91715 84.9297C4.77425 90.8694 1.16784 99.7413 0.0458215 108.151Z" fill="#C4D3E4"/>
<path d="M8.9082 84.9236L24.8694 68.9624L44.5198 88.6128L28.5586 104.574L8.9082 84.9236Z" fill="#E9293A"/>
<path d="M8.90698 84.9229L24.8681 68.9617L34.7495 78.8431L18.7883 94.8042L8.90698 84.9229Z" fill="#D42032"/>
<path d="M15.0466 91.062L31.0078 75.1008L38.3814 82.4744L22.4202 98.4356L15.0466 91.062Z" fill="#D42032"/>
<path d="M2.16777 98.9913C5.15057 99.9768 7.74556 101.549 9.87931 103.733C11.8135 105.717 13.3611 108.237 14.5087 111.332C11.514 112.305 8.40725 113.042 5.37479 113.453C3.86526 113.666 2.46724 113.117 1.46921 112.143C0.42092 111.145 -0.152731 109.698 0.0465085 108.151C0.146433 107.427 0.259152 106.69 0.395635 105.954C0.408734 105.892 0.408734 105.842 0.421225 105.804C0.558012 105.068 0.708203 104.319 0.895256 103.583C0.907747 103.521 0.919932 103.459 0.932728 103.396C1.0945 102.685 1.28216 101.973 1.4814 101.275C1.69374 100.513 1.93075 99.7523 2.16777 98.9913Z" fill="#454545"/>
<path d="M2.16777 98.9913C5.15057 99.9768 7.74556 101.549 9.87931 103.733L1.46921 112.143C0.42092 111.145 -0.152731 109.698 0.0465085 108.151C0.146433 107.427 0.259152 106.69 0.395635 105.954C0.408734 105.892 0.408734 105.842 0.421225 105.804C0.558012 105.068 0.708203 104.319 0.895256 103.583C0.907747 103.521 0.919932 103.459 0.932728 103.396C1.0945 102.685 1.28216 101.973 1.4814 101.275C1.69374 100.513 1.93075 99.7523 2.16777 98.9913Z" fill="#2C2C2C"/>
<path d="M15.0461 91.0614L31.0073 75.1003L34.7502 78.8432L18.7891 94.8044L15.0461 91.0614Z" fill="#BA1037"/>
<path d="M35.7906 95.2889L31.8584 99.2211C31.444 99.6354 30.8845 99.8631 30.3249 99.8631C29.7654 99.8631 29.1851 99.6561 28.75 99.2211C27.8899 98.361 27.9005 96.9621 28.75 96.1126L32.6821 92.1805C33.5422 91.3204 34.9305 91.3204 35.7906 92.1805C36.6504 93.0403 36.6506 94.4288 35.7906 95.2889Z" fill="#FE6559"/>
<path d="M91.952 21.5434C90.6166 20.208 90.6166 18.0426 91.952 16.7072L95.2863 13.3729C96.6216 12.0376 98.787 12.0376 100.122 13.3729C101.458 14.7083 101.458 16.8737 100.122 18.2091L96.7881 21.5434C95.4527 22.8788 93.2873 22.8788 91.952 21.5434Z" fill="#FABB53"/>
<path d="M73.5102 10.8976C72.6742 10.0617 72.2949 8.81514 72.6232 7.59193L73.8437 3.03708C74.3325 1.21289 76.2075 0.130191 78.032 0.618706C79.8558 1.10781 80.9391 2.98336 80.4497 4.80695L79.2292 9.3618C78.7404 11.186 76.8654 12.2687 75.0409 11.7802C74.4406 11.619 73.9205 11.3079 73.5102 10.8976Z" fill="#FABB53"/>
<path d="M52.2082 10.8926C51.7979 10.4823 51.4868 9.96217 51.3259 9.36149L50.1056 4.80694C49.6168 2.98275 50.6995 1.1078 52.5237 0.618989C54.3473 0.129588 56.2232 1.21259 56.7117 3.03706L57.9319 7.59162C58.4207 9.4158 57.338 11.2908 55.5138 11.7796C54.2906 12.1078 53.0441 11.7285 52.2082 10.8926Z" fill="#FABB53"/>
<path d="M102.603 61.2873C101.767 60.4513 101.388 59.2054 101.716 57.9816C102.205 56.1574 104.08 55.0747 105.904 55.5635L110.458 56.7838C112.283 57.2723 113.365 59.147 112.877 60.9717C112.388 62.7959 110.513 63.8786 108.689 63.3898L104.134 62.1696C103.533 62.0087 103.013 61.6976 102.603 61.2873Z" fill="#FABB53"/>
<path d="M102.598 39.9853C102.188 39.575 101.877 39.0549 101.715 38.4546C101.227 36.6301 102.31 34.7551 104.134 34.2663L108.689 33.0458C110.512 32.5564 112.388 33.6397 112.877 35.4635C113.365 37.288 112.283 39.163 110.458 39.6518L105.904 40.8723C104.68 41.2006 103.434 40.8213 102.598 39.9853Z" fill="#FABB53"/>
<path d="M27.2969 63.6867L49.8081 86.1979C54.9132 84.6486 60.2479 83.8572 65.6378 83.7616C74.7909 83.5983 83.8938 79.8818 90.7115 72.6154C103.009 59.5079 103.37 38.7801 91.5025 25.2805C77.9321 9.84287 54.3715 9.27642 40.0561 23.5918C33.3441 30.3038 29.9039 39.0425 29.7356 47.834C29.632 53.2319 28.8442 58.5742 27.2969 63.6867Z" fill="#FABB53"/>
<path d="M72.0866 22.2053C71.4322 21.5362 71.1693 20.532 71.4906 19.5848C71.947 18.2437 73.4037 17.5265 74.7445 17.9821C75.9638 18.3964 77.1663 18.8914 78.3181 19.4523C79.5939 20.0742 80.1219 21.6085 79.5015 22.881C78.8814 24.1544 77.3465 24.6842 76.0728 24.0638C75.1129 23.5966 74.1103 23.184 73.0939 22.8387C72.6995 22.7047 72.3592 22.484 72.0866 22.2053Z" fill="#FFD77F"/>
<path d="M43.0287 28.7836C42.038 27.7707 42.0562 26.1471 43.0687 25.1567C48.9893 19.3654 56.8208 16.2327 65.1208 16.3346C66.5364 16.3502 67.6704 17.5137 67.6536 18.9305C67.6362 20.3466 66.4739 21.4812 65.0571 21.4632C58.1305 21.3785 51.5947 23.9923 46.6556 28.8236C45.6431 29.814 44.0194 29.7964 43.0287 28.7836Z" fill="#FFD77F"/>
<path d="M49.8081 86.1979C54.9132 84.6486 60.2482 83.8569 65.6375 83.7613C74.7912 83.598 83.8938 79.8818 90.7112 72.6157C103.009 59.5076 103.37 38.7798 91.5025 25.2805C91.0825 24.8027 90.6527 24.3398 90.2141 23.8906L38.8574 75.2472L49.8081 86.1979Z" fill="#F99944"/>
<path d="M40.9673 77.3571L55.8843 62.4401L66.5236 63.6976C68.3979 63.9272 70.1023 62.5854 70.3083 60.711C70.5374 58.8372 69.1952 57.1326 67.3338 56.9148L58.2657 55.8506L38.8633 75.2531L40.9673 77.3571Z" fill="#F99944"/>
<path d="M49.8024 46.9765L51.0481 57.604L36.1311 72.521L40.9673 77.3571L55.8842 62.4401L66.5235 63.6976C68.3979 63.9272 70.1022 62.5854 70.3083 60.711C70.5373 58.8372 69.1952 57.1326 67.3338 56.9148L58.2657 55.8506L57.722 55.7898L56.5853 46.1662C56.3674 44.3049 54.6628 42.9627 52.789 43.1918C50.9147 43.3978 49.5731 45.1024 49.8024 46.9765Z" fill="#E8EDF2"/>
<path d="M40.9673 77.3571L55.8843 62.4401L66.5236 63.6976C68.3979 63.9272 70.1023 62.5854 70.3083 60.711C70.5374 58.8372 69.1952 57.1326 67.3338 56.9148L58.2657 55.8506L38.8633 75.2531L40.9673 77.3571Z" fill="#E8EDF2"/>
<path d="M50.6677 94.1286C49.4698 95.3265 47.8848 95.9379 46.3003 95.9254C44.7158 95.9379 43.1307 95.3265 41.9329 94.1286L19.3719 71.5676C16.9512 69.1469 16.9637 65.241 19.3719 62.8328C20.5698 61.6349 22.1549 61.0235 23.7268 61.0235C25.3241 61.0238 26.8964 61.6224 28.1067 62.8328L50.6677 85.3938C53.0759 87.802 53.0759 91.7204 50.6677 94.1286Z" fill="#108BE1"/>
<path d="M19.3252 62.8902C16.97 65.3021 16.969 69.1647 19.3718 71.5675L41.9328 94.1285C43.1306 95.3263 44.716 95.9381 46.3005 95.9256C47.8615 95.9378 49.4189 95.3382 50.6103 94.1754L19.3252 62.8902Z" fill="#0C6BC3"/>
</svg>
