<svg xmlns="http://www.w3.org/2000/svg" xmlns:xlink="http://www.w3.org/1999/xlink" width="500" zoomAndPan="magnify" viewBox="0 0 375 374.999991" height="500" preserveAspectRatio="xMidYMid meet" version="1.2"><defs><clipPath id="26f840fec4"><path d="M 2 1.640625 L 373.640625 1.640625 L 373.640625 373.640625 L 2 373.640625 Z M 2 1.640625 "/></clipPath></defs><g id="6eb367a2d0"><g clip-rule="nonzero" clip-path="url(#26f840fec4)"><path style=" stroke:none;fill-rule:nonzero;fill:#000000;fill-opacity:1;" d="M 188.667969 1.640625 C 137.425781 1.640625 131.277344 1.640625 111.808594 2.667969 C 92.335938 2.667969 77.988281 6.765625 66.714844 10.867188 C 54.417969 15.988281 44.171875 22.136719 33.921875 32.386719 C 23.675781 42.632812 17.527344 52.882812 12.402344 65.179688 C 7.277344 77.476562 4.203125 90.800781 4.203125 110.269531 C 2.15625 131.789062 2.15625 137.941406 2.15625 188.15625 C 2.15625 239.394531 2.15625 245.542969 3.179688 265.015625 C 3.179688 284.484375 7.277344 298.832031 11.378906 310.105469 C 16.5 322.402344 22.648438 332.648438 32.898438 342.898438 C 43.144531 353.144531 53.394531 359.296875 65.691406 364.417969 C 77.988281 369.542969 91.3125 372.617188 110.78125 372.617188 C 130.253906 372.617188 137.425781 373.640625 187.640625 373.640625 C 237.855469 373.640625 245.03125 373.640625 264.5 372.617188 C 283.972656 372.617188 298.320312 368.519531 309.59375 364.417969 C 321.890625 359.296875 332.136719 353.144531 342.386719 342.898438 C 352.632812 332.648438 358.78125 322.402344 363.90625 310.105469 C 368.003906 297.808594 372.105469 284.484375 372.105469 265.015625 C 372.105469 245.542969 373.128906 238.371094 373.128906 188.15625 C 373.128906 136.914062 373.128906 130.765625 372.105469 111.296875 C 372.105469 91.824219 368.003906 77.476562 363.90625 66.203125 C 358.78125 53.90625 352.632812 43.660156 342.386719 33.410156 C 332.136719 23.164062 321.890625 17.015625 309.59375 11.890625 C 297.296875 6.765625 283.972656 3.691406 264.5 3.691406 C 246.054688 1.640625 239.90625 1.640625 188.667969 1.640625 Z M 172.269531 35.460938 C 177.394531 35.460938 182.519531 35.460938 188.667969 35.460938 C 238.882812 35.460938 244.003906 35.460938 264.5 36.484375 C 282.949219 36.484375 292.171875 40.585938 299.34375 42.632812 C 308.566406 45.707031 314.714844 49.808594 320.863281 56.980469 C 327.015625 63.128906 331.113281 69.277344 335.210938 78.5 C 337.261719 84.648438 340.335938 94.898438 341.359375 113.34375 C 341.359375 132.816406 342.386719 138.964844 342.386719 189.179688 C 342.386719 239.394531 342.386719 244.519531 341.359375 265.015625 C 341.359375 283.460938 337.261719 292.683594 335.210938 299.855469 C 332.136719 309.082031 328.039062 315.230469 320.863281 321.378906 C 314.714844 327.527344 308.566406 331.625 299.34375 335.726562 C 293.195312 338.800781 282.949219 340.847656 264.5 341.875 C 245.03125 341.875 238.882812 342.898438 188.667969 342.898438 C 138.453125 342.898438 133.328125 342.898438 112.832031 341.875 C 94.386719 341.875 85.164062 337.773438 77.988281 335.726562 C 68.765625 332.648438 62.617188 328.550781 56.46875 321.378906 C 50.320312 315.230469 46.21875 309.082031 42.121094 299.855469 C 40.070312 293.707031 36.996094 283.460938 35.972656 265.015625 C 35.972656 245.542969 34.949219 239.394531 34.949219 189.179688 C 34.949219 138.964844 34.949219 133.839844 35.972656 113.34375 C 35.972656 94.898438 40.070312 85.675781 42.121094 78.5 C 45.195312 69.277344 49.296875 63.128906 56.46875 56.980469 C 62.617188 50.832031 68.765625 46.734375 77.988281 42.632812 C 84.136719 39.558594 94.386719 37.511719 112.832031 36.484375 C 130.253906 36.484375 136.402344 36.484375 171.246094 35.460938 Z M 188.667969 92.847656 C 135.378906 92.847656 92.335938 135.890625 92.335938 189.179688 C 92.335938 242.46875 135.378906 285.511719 188.667969 285.511719 C 241.957031 285.511719 284.996094 242.46875 284.996094 189.179688 C 284.996094 135.890625 241.957031 92.847656 188.667969 92.847656 Z M 188.667969 126.667969 C 223.511719 126.667969 251.179688 154.335938 251.179688 189.179688 C 251.179688 224.023438 223.511719 251.691406 188.667969 251.691406 C 153.824219 251.691406 126.15625 224.023438 126.15625 189.179688 C 126.15625 154.335938 153.824219 126.667969 188.667969 126.667969 Z M 188.667969 126.667969 "/></g></g></svg>