<svg xmlns="http://www.w3.org/2000/svg" xmlns:xlink="http://www.w3.org/1999/xlink" width="500" zoomAndPan="magnify" viewBox="0 0 375 374.999991" height="500" preserveAspectRatio="xMidYMid meet" version="1.2"><defs><clipPath id="ab91d873fc"><path d="M 2.625 2.625 L 372.375 2.625 L 372.375 372.375 L 2.625 372.375 Z M 2.625 2.625 "/></clipPath></defs><g id="0ecb2fc3b7"><path style=" stroke:none;fill-rule:nonzero;fill:#000000;fill-opacity:1;" d="M 88.824219 136.726562 L 116.175781 136.726562 C 116.519531 136.726562 116.859375 136.757812 117.199219 136.828125 C 117.535156 136.894531 117.863281 136.992188 118.179688 137.125 C 118.5 137.257812 118.800781 137.417969 119.089844 137.609375 C 119.375 137.800781 119.640625 138.019531 119.882812 138.261719 C 120.125 138.503906 120.34375 138.769531 120.535156 139.054688 C 120.726562 139.34375 120.886719 139.644531 121.019531 139.964844 C 121.152344 140.28125 121.25 140.609375 121.316406 140.945312 C 121.386719 141.285156 121.417969 141.625 121.417969 141.96875 L 121.417969 292.394531 C 121.417969 292.738281 121.386719 293.082031 121.316406 293.417969 C 121.25 293.757812 121.152344 294.085938 121.019531 294.402344 C 120.886719 294.71875 120.726562 295.023438 120.535156 295.308594 C 120.34375 295.59375 120.125 295.859375 119.882812 296.105469 C 119.640625 296.347656 119.375 296.566406 119.089844 296.757812 C 118.800781 296.949219 118.5 297.109375 118.179688 297.242188 C 117.863281 297.371094 117.535156 297.472656 117.199219 297.539062 C 116.859375 297.605469 116.519531 297.640625 116.175781 297.640625 L 88.824219 297.640625 C 88.480469 297.640625 88.140625 297.605469 87.800781 297.539062 C 87.464844 297.472656 87.136719 297.371094 86.820312 297.242188 C 86.5 297.109375 86.199219 296.949219 85.910156 296.757812 C 85.625 296.566406 85.359375 296.347656 85.117188 296.105469 C 84.875 295.859375 84.65625 295.59375 84.464844 295.308594 C 84.273438 295.023438 84.113281 294.71875 83.980469 294.402344 C 83.847656 294.085938 83.75 293.757812 83.683594 293.417969 C 83.613281 293.082031 83.582031 292.738281 83.582031 292.394531 L 83.582031 141.96875 C 83.582031 141.625 83.613281 141.285156 83.683594 140.945312 C 83.75 140.609375 83.847656 140.28125 83.980469 139.964844 C 84.113281 139.644531 84.273438 139.34375 84.464844 139.054688 C 84.65625 138.769531 84.875 138.503906 85.117188 138.261719 C 85.359375 138.019531 85.625 137.800781 85.910156 137.609375 C 86.199219 137.417969 86.5 137.257812 86.820312 137.125 C 87.136719 136.992188 87.464844 136.894531 87.800781 136.828125 C 88.140625 136.757812 88.480469 136.726562 88.824219 136.726562 Z M 88.824219 136.726562 "/><path style=" stroke:none;fill-rule:nonzero;fill:#000000;fill-opacity:1;" d="M 124.527344 99.613281 C 124.488281 86.71875 115.234375 77.363281 102.5 77.363281 C 89.765625 77.363281 80.160156 86.964844 80.160156 99.703125 C 80.160156 105.628906 82.324219 111.140625 86.25 115.226562 C 90.28125 119.421875 95.832031 121.730469 101.878906 121.730469 C 108.578125 121.730469 114.5625 119.371094 118.722656 115.058594 C 122.621094 111.023438 124.679688 105.578125 124.53125 99.703125 C 124.53125 99.675781 124.527344 99.652344 124.527344 99.613281 Z M 124.527344 99.613281 "/><path style=" stroke:none;fill-rule:nonzero;fill:#000000;fill-opacity:1;" d="M 274.332031 147.308594 C 260.710938 135.125 244.753906 133.304688 236.449219 133.304688 C 224.046875 133.304688 212.226562 136.621094 202.265625 142.894531 C 197.910156 145.632812 193.976562 148.886719 190.464844 152.644531 L 189.777344 141.632812 C 189.757812 141.300781 189.707031 140.976562 189.625 140.65625 C 189.542969 140.335938 189.429688 140.023438 189.289062 139.726562 C 189.148438 139.425781 188.980469 139.140625 188.785156 138.875 C 188.589844 138.605469 188.371094 138.359375 188.128906 138.132812 C 187.890625 137.90625 187.628906 137.707031 187.347656 137.527344 C 187.070312 137.351562 186.777344 137.203125 186.46875 137.082031 C 186.160156 136.960938 185.84375 136.867188 185.519531 136.804688 C 185.191406 136.746094 184.863281 136.714844 184.535156 136.714844 L 160.304688 136.714844 C 159.945312 136.714844 159.585938 136.753906 159.234375 136.824219 C 158.882812 136.898438 158.539062 137.007812 158.207031 137.152344 C 157.878906 137.296875 157.566406 137.472656 157.269531 137.683594 C 156.976562 137.890625 156.707031 138.128906 156.460938 138.394531 C 156.214844 138.65625 156 138.945312 155.8125 139.253906 C 155.628906 139.5625 155.476562 139.886719 155.355469 140.230469 C 155.238281 140.570312 155.152344 140.917969 155.105469 141.277344 C 155.058594 141.632812 155.050781 141.992188 155.078125 142.351562 C 155.9375 153.832031 156.304688 165.894531 156.304688 182.675781 L 156.304688 292.394531 C 156.304688 292.738281 156.335938 293.082031 156.40625 293.417969 C 156.472656 293.757812 156.570312 294.085938 156.703125 294.402344 C 156.835938 294.71875 156.996094 295.023438 157.1875 295.308594 C 157.378906 295.59375 157.597656 295.859375 157.839844 296.105469 C 158.082031 296.347656 158.347656 296.566406 158.636719 296.757812 C 158.921875 296.949219 159.222656 297.109375 159.542969 297.242188 C 159.859375 297.371094 160.1875 297.472656 160.523438 297.539062 C 160.863281 297.605469 161.203125 297.640625 161.546875 297.640625 L 188.898438 297.640625 C 189.242188 297.640625 189.585938 297.605469 189.921875 297.539062 C 190.261719 297.472656 190.589844 297.371094 190.90625 297.242188 C 191.226562 297.109375 191.527344 296.949219 191.8125 296.757812 C 192.101562 296.566406 192.363281 296.347656 192.609375 296.105469 C 192.851562 295.859375 193.070312 295.59375 193.261719 295.308594 C 193.453125 295.023438 193.613281 294.71875 193.746094 294.402344 C 193.875 294.085938 193.976562 293.757812 194.042969 293.417969 C 194.109375 293.082031 194.144531 292.738281 194.144531 292.394531 L 194.144531 201.953125 C 194.144531 197.703125 194.707031 193.710938 195.695312 191.003906 C 195.722656 190.917969 195.75 190.832031 195.777344 190.742188 C 199.476562 178.675781 210.699219 166.480469 227.4375 166.480469 C 237.796875 166.480469 245.234375 170.019531 250.175781 177.308594 C 254.632812 183.894531 256.992188 193.707031 256.992188 205.675781 L 256.992188 292.394531 C 256.992188 292.738281 257.027344 293.082031 257.09375 293.417969 C 257.160156 293.757812 257.261719 294.085938 257.394531 294.402344 C 257.523438 294.71875 257.6875 295.023438 257.878906 295.308594 C 258.070312 295.59375 258.285156 295.859375 258.53125 296.105469 C 258.773438 296.347656 259.039062 296.566406 259.324219 296.757812 C 259.609375 296.949219 259.914062 297.109375 260.230469 297.242188 C 260.550781 297.371094 260.878906 297.472656 261.214844 297.539062 C 261.554688 297.605469 261.894531 297.640625 262.238281 297.640625 L 289.589844 297.640625 C 289.933594 297.640625 290.273438 297.605469 290.613281 297.539062 C 290.949219 297.472656 291.277344 297.371094 291.597656 297.242188 C 291.914062 297.109375 292.21875 296.949219 292.503906 296.757812 C 292.789062 296.566406 293.054688 296.347656 293.296875 296.105469 C 293.542969 295.859375 293.757812 295.59375 293.949219 295.308594 C 294.140625 295.023438 294.304688 294.71875 294.433594 294.402344 C 294.566406 294.085938 294.667969 293.757812 294.734375 293.417969 C 294.800781 293.082031 294.835938 292.738281 294.835938 292.394531 L 294.835938 202.574219 C 294.835938 189.777344 292.898438 178.4375 289.085938 168.863281 C 285.660156 160.253906 280.695312 153.003906 274.332031 147.308594 Z M 274.332031 147.308594 "/><g clip-rule="nonzero" clip-path="url(#ab91d873fc)"><path style=" stroke:none;fill-rule:nonzero;fill:#000000;fill-opacity:1;" d="M 324.242188 2.625 L 50.761719 2.625 C 24.21875 2.625 2.625 24.222656 2.625 50.761719 L 2.625 324.242188 C 2.625 350.78125 24.21875 372.375 50.761719 372.375 L 324.242188 372.375 C 350.78125 372.375 372.375 350.78125 372.375 324.242188 L 372.375 50.761719 C 372.375 24.222656 350.78125 2.625 324.242188 2.625 Z M 338.578125 53.09375 L 338.578125 321.910156 C 338.578125 322.457031 338.550781 323 338.496094 323.542969 C 338.441406 324.085938 338.359375 324.625 338.253906 325.160156 C 338.148438 325.695312 338.015625 326.222656 337.855469 326.746094 C 337.695312 327.269531 337.511719 327.78125 337.304688 328.285156 C 337.09375 328.789062 336.863281 329.28125 336.605469 329.761719 C 336.347656 330.246094 336.066406 330.710938 335.761719 331.164062 C 335.460938 331.621094 335.136719 332.058594 334.789062 332.480469 C 334.441406 332.902344 334.078125 333.304688 333.691406 333.691406 C 333.304688 334.078125 332.902344 334.441406 332.480469 334.789062 C 332.058594 335.132812 331.621094 335.460938 331.164062 335.761719 C 330.710938 336.066406 330.246094 336.347656 329.761719 336.605469 C 329.28125 336.863281 328.789062 337.09375 328.285156 337.304688 C 327.78125 337.511719 327.269531 337.695312 326.746094 337.855469 C 326.222656 338.015625 325.695312 338.148438 325.160156 338.253906 C 324.625 338.359375 324.085938 338.441406 323.542969 338.496094 C 323 338.550781 322.457031 338.578125 321.910156 338.578125 L 53.09375 338.578125 C 52.546875 338.578125 52.003906 338.550781 51.460938 338.496094 C 50.917969 338.441406 50.378906 338.359375 49.84375 338.253906 C 49.308594 338.148438 48.78125 338.015625 48.257812 337.855469 C 47.734375 337.695312 47.222656 337.511719 46.71875 337.304688 C 46.214844 337.09375 45.722656 336.863281 45.242188 336.605469 C 44.757812 336.347656 44.292969 336.066406 43.839844 335.761719 C 43.382812 335.460938 42.945312 335.132812 42.523438 334.789062 C 42.101562 334.441406 41.699219 334.078125 41.3125 333.691406 C 40.925781 333.304688 40.5625 332.902344 40.214844 332.480469 C 39.867188 332.058594 39.542969 331.621094 39.242188 331.164062 C 38.9375 330.710938 38.65625 330.246094 38.398438 329.761719 C 38.140625 329.28125 37.910156 328.789062 37.699219 328.285156 C 37.492188 327.78125 37.308594 327.269531 37.148438 326.746094 C 36.988281 326.222656 36.855469 325.695312 36.75 325.160156 C 36.644531 324.625 36.5625 324.085938 36.507812 323.542969 C 36.453125 323 36.425781 322.457031 36.425781 321.910156 L 36.425781 53.09375 C 36.425781 52.546875 36.453125 52.003906 36.507812 51.460938 C 36.5625 50.917969 36.644531 50.378906 36.75 49.84375 C 36.855469 49.308594 36.988281 48.78125 37.148438 48.257812 C 37.308594 47.734375 37.492188 47.222656 37.699219 46.71875 C 37.910156 46.214844 38.140625 45.722656 38.398438 45.242188 C 38.65625 44.757812 38.9375 44.292969 39.242188 43.839844 C 39.542969 43.382812 39.867188 42.945312 40.214844 42.523438 C 40.5625 42.101562 40.925781 41.699219 41.3125 41.3125 C 41.699219 40.925781 42.101562 40.5625 42.523438 40.214844 C 42.945312 39.867188 43.382812 39.542969 43.839844 39.242188 C 44.292969 38.9375 44.757812 38.65625 45.242188 38.398438 C 45.722656 38.140625 46.214844 37.910156 46.71875 37.699219 C 47.222656 37.492188 47.734375 37.308594 48.257812 37.148438 C 48.78125 36.988281 49.308594 36.855469 49.84375 36.75 C 50.378906 36.644531 50.917969 36.5625 51.460938 36.507812 C 52.003906 36.453125 52.546875 36.425781 53.09375 36.425781 L 321.910156 36.425781 C 322.457031 36.425781 323 36.453125 323.542969 36.507812 C 324.085938 36.5625 324.625 36.644531 325.160156 36.75 C 325.695312 36.855469 326.222656 36.988281 326.746094 37.148438 C 327.269531 37.308594 327.78125 37.492188 328.285156 37.699219 C 328.789062 37.910156 329.28125 38.140625 329.761719 38.398438 C 330.246094 38.65625 330.710938 38.9375 331.164062 39.242188 C 331.621094 39.542969 332.058594 39.867188 332.480469 40.214844 C 332.902344 40.5625 333.304688 40.925781 333.691406 41.3125 C 334.078125 41.699219 334.441406 42.101562 334.789062 42.523438 C 335.136719 42.945312 335.460938 43.382812 335.761719 43.839844 C 336.066406 44.292969 336.347656 44.757812 336.605469 45.242188 C 336.863281 45.722656 337.09375 46.214844 337.304688 46.71875 C 337.511719 47.222656 337.695312 47.734375 337.855469 48.257812 C 338.015625 48.78125 338.148438 49.308594 338.253906 49.84375 C 338.359375 50.378906 338.441406 50.917969 338.496094 51.460938 C 338.550781 52.003906 338.578125 52.546875 338.578125 53.09375 Z M 338.578125 53.09375 "/></g></g></svg>