<svg width="117" height="34" viewBox="0 0 117 34" fill="none" xmlns="http://www.w3.org/2000/svg">
<path d="M20.5479 0.321376V0.533211C19.524 0.533211 18.6767 1.55707 18.6767 3.88724V21.4341C18.6767 23.7643 19.524 24.7529 20.5479 24.7529V25.0353H14.3341V24.7529C15.3579 24.7529 16.2053 23.7643 16.2053 21.4341V10.8071C5.47237 10.9484 4.76626 15.9618 4.76626 16.6679V21.4341C4.76626 23.7643 5.61359 24.7529 6.63746 24.7529V25.0353H0.423667V24.7529C1.44753 24.7529 2.29486 23.7643 2.29486 21.4341V3.88724C2.29486 1.55707 1.44753 0.533211 0.423667 0.533211V0.321376H6.63746V0.533211C5.61359 0.533211 4.76626 1.55707 4.76626 3.88724V15.6087C5.43706 13.4551 8.1556 10.6659 16.2053 10.5953V3.88724C16.2053 1.55707 15.3579 0.533211 14.3341 0.533211V0.321376H20.5479ZM34.9837 20.7764L35.0875 20.811C34.1874 23.5113 31.6255 25 28.7867 25C24.1822 25 21.6203 21.5034 21.6203 17.2105C21.6203 12.883 24.1476 9.421 28.7174 9.38638H28.7867C31.764 9.38638 34.5336 10.9097 34.5336 13.8177C34.5336 18.6992 27.0903 17.9029 24.5284 19.8762C25.3247 22.542 27.298 24.1691 30.0676 24.1691C32.2833 24.1691 33.9451 22.992 34.9837 20.7764ZM28.6828 9.62872H28.6136C25.9132 9.69796 24.0784 12.606 24.0784 16.7258C24.0784 17.7298 24.1822 18.7338 24.4246 19.7031C26.848 17.7298 32.2487 18.4914 32.2487 13.6793C32.2487 10.5981 30.3792 9.62872 28.6828 9.62872ZM50.0883 9.38638V9.62872C49.0497 9.62872 48.3573 10.3904 47.1802 11.7059L43.3027 16.345L47.1109 21.9881C48.0803 23.5113 49.0843 24.7577 50.0883 24.7577V25.0346H44.4798V24.7577C44.826 24.7577 45.0684 24.4461 45.0684 23.996C45.0337 23.4421 44.8606 22.9228 44.5491 22.4727L41.7102 18.2837L37.902 22.8189C37.6251 23.0959 37.452 23.5113 37.4173 23.9268C37.4173 24.1345 37.4866 24.3422 37.6251 24.5153C37.7635 24.6884 37.9713 24.7577 38.179 24.7577V25.0346H34.7862V24.7577C35.7902 24.7577 36.6211 23.996 37.6597 22.7151L41.5717 18.0414L37.452 11.9483C36.4826 10.4596 35.7902 9.62872 34.7862 9.62872V9.38638H40.36V9.62872C40.0138 9.62872 39.7715 9.90568 39.7715 10.3557C39.8061 10.9097 39.9792 11.429 40.3254 11.879L43.1643 16.1027L46.8686 11.7405C47.1802 11.3597 47.3879 10.9097 47.4225 10.425C47.4225 10.2173 47.3533 10.0095 47.2148 9.87106C47.0763 9.69796 46.8686 9.62872 46.6609 9.62872V9.38638H50.0883ZM75.756 9.38638C78.5949 9.38638 80.949 11.9829 80.949 16.3104C80.949 20.9495 78.1794 25 73.5403 25H73.4019C71.7747 25 70.2514 24.3768 69.4898 23.6152V30.0891C69.4552 30.9546 69.6283 31.8201 70.0091 32.6164C70.2861 33.0665 70.8054 33.378 71.3247 33.3434V33.6204H65.2315V33.3434C66.2355 33.3434 67.0664 32.3741 67.0664 30.0891V12.3983C67.0664 11.7752 66.9279 11.5674 66.7894 11.5674C66.6856 11.5674 66.5471 11.7405 66.4086 11.9483C65.7855 13.1946 65.3008 14.9256 64.7122 16.5181C63.7429 19.2531 62.6004 24.4115 57.5113 24.9654C57.2343 25 56.9227 25 56.6112 25C52.0067 25 49.4448 21.5034 49.4448 17.1759C49.4448 12.883 51.9721 9.38638 56.5419 9.38638H56.6112C59.5885 9.38638 62.3581 10.9097 62.3581 13.7831C62.3581 18.6992 54.9148 17.9029 52.3183 19.8762C53.1145 22.4381 54.9494 24.0306 57.5113 24.1691H57.8921C62.1504 24.1691 63.4659 19.2531 64.4699 16.4142C65.0584 14.7871 66.0624 11.2559 67.6549 9.80182C67.8973 9.52486 68.2089 9.38638 68.5551 9.38638C69.0744 9.38638 69.4898 9.7672 69.4898 10.5635V17.4875C70.0437 13.6446 72.0171 9.38638 75.756 9.38638ZM52.249 19.7031C54.6724 17.6952 60.0732 18.4568 60.0732 13.6793C60.0732 10.5635 58.2037 9.62872 56.5073 9.62872H56.4381C53.7377 9.66334 51.9028 12.606 51.9028 16.7258C51.8682 17.7298 52.0067 18.7338 52.249 19.7031ZM72.8479 24.6538C76.2753 24.6538 78.4564 21.3649 78.4564 16.2065C78.4564 12.4329 77.2793 10.1134 74.8905 10.1134C71.6709 10.1134 69.8706 14.7179 69.4898 19.0454V23.3036C70.3899 24.1691 71.6016 24.6538 72.8479 24.6538ZM87.6464 25H81.5532V24.7577C82.5572 24.7577 83.3535 23.7883 83.3535 21.5034V12.9176C83.4227 12.0521 83.215 11.1866 82.8342 10.425C82.5572 9.9403 82.0725 9.62872 81.5532 9.62872V9.38638H85.7769V21.5034C85.7423 22.3689 85.9154 23.1998 86.3308 23.996C86.5731 24.4807 87.0924 24.7577 87.6464 24.7577V25ZM84.4613 6.75526C83.4227 6.75526 82.5572 5.88976 82.5572 4.81654C82.5572 3.74332 83.4227 2.87782 84.4613 2.87782C85.5345 2.87782 86.4 3.74332 86.4 4.81654C86.4 5.88976 85.5345 6.75526 84.4613 6.75526ZM95.322 9.62872C92.587 9.62872 90.6137 12.5714 90.6137 16.7258C90.6137 21.2264 92.8294 24.2037 96.5683 24.2037C98.784 24.2037 100.48 22.992 101.519 20.7764L101.623 20.811C100.723 23.5113 98.1608 25 95.322 25C90.7175 25 88.1557 21.5034 88.1557 17.2105C88.1557 12.883 90.7175 9.38638 95.322 9.38638C97.33 9.31714 99.2687 10.148 100.619 11.6367C100.688 11.7405 100.792 11.8098 100.827 11.9136V15.4795H100.619C99.9957 11.2559 97.3992 9.62872 95.322 9.62872ZM115.399 23.996C115.676 24.4807 116.23 24.7577 116.784 24.7577V25H112.387V19.0454C111.244 21.7457 108.752 25 105.29 25C103.974 25 102.589 24.2384 102.589 22.4727C102.589 17.5913 111.314 16.2411 112.352 12.7445C112.075 10.5288 110.968 9.62872 109.167 9.62872C106.917 9.62872 104.632 11.2212 103.905 15.0294H103.628V11.5674C105.082 10.1826 107.021 9.38638 109.063 9.38638C113.668 9.38638 114.845 12.0175 114.845 14.7871V21.6419C114.81 22.4727 114.983 23.269 115.399 23.996ZM107.298 23.269C109.583 23.269 111.487 20.7764 112.387 18.7684V14.0601C112.387 13.7831 112.352 13.4715 112.352 13.1946C111.175 15.9296 105.29 17.4875 105.29 21.261C105.255 21.815 105.463 22.3343 105.844 22.7151C106.225 23.0959 106.744 23.3036 107.298 23.269Z" fill="white"/>
</svg>
