<svg width="29" height="48" viewBox="0 0 29 48" fill="none" xmlns="http://www.w3.org/2000/svg">
<path d="M28.1599 34.83C26.918 37.348 25.1599 39.5763 22.9999 41.37C20.7788 43.1985 18.0483 44.2984 15.1799 44.52C13.5914 44.6481 11.9948 44.4069 10.515 43.8154C9.03519 43.2238 7.71233 42.2979 6.6499 41.11C4.5399 38.58 4.4199 35.22 4.4199 32.11C4.4199 27.11 4.4199 30.99 4.4199 26V10.12V8.45C4.6499 2.55 14.5699 1.53 16.7899 6.79C17.0601 7.45979 17.1894 8.17804 17.1699 8.9C17.0299 17.06 18.1699 26.76 16.1199 29.69C16.6434 29.9047 17.2169 29.967 17.7743 29.8697C18.3317 29.7723 18.8501 29.5194 19.2699 29.14C19.7457 28.7403 20.1283 28.2414 20.3908 27.6783C20.6534 27.1151 20.7896 26.5014 20.7899 25.88L20.8699 19.37H24.8699V26.15C24.8763 27.1312 24.6512 28.1001 24.2129 28.978C23.7745 29.8559 23.1353 30.6181 22.3472 31.2026C21.5591 31.7871 20.6442 32.1775 19.6769 32.3422C18.7095 32.5068 17.717 32.4409 16.7799 32.15C15.3304 31.7806 14.0431 30.9435 13.1175 29.7684C12.1919 28.5933 11.6796 27.1457 11.6599 25.65C11.5699 16.72 10.7599 7.33 13.1699 5.5H13.0899C11.7287 5.81382 10.5125 6.57599 9.63655 7.66412C8.7606 8.75225 8.27576 10.1032 8.2599 11.5V26.31C8.24515 28.7093 9.13409 31.0263 10.7499 32.8C11.8274 33.8975 13.1355 34.7417 14.5795 35.2712C16.0234 35.8008 17.5672 36.0025 19.0987 35.8618C20.6303 35.7211 22.1114 35.2415 23.4347 34.4577C24.7581 33.6739 25.8905 32.6055 26.7499 31.33C27.7198 29.7997 28.2268 28.0217 28.2099 26.21V9.52C28.2093 7.93338 27.7921 6.37473 26.9999 5C24.9999 1.46 20.9999 0.07 15.9299 0C18.7405 0.838191 21.1704 2.63137 22.7999 5.07C24.0912 7.05238 24.7855 9.36418 24.7999 11.73V15.91L20.7399 16L20.6399 8.32C20.4999 -0.39 6.3299 -3.13 1.8599 5.37C1.11878 6.79966 0.740995 8.38978 0.759899 10V33.61C0.700764 35.0636 0.828474 36.5189 1.1399 37.94C1.40435 38.9937 1.81856 40.004 2.3699 40.94C2.8052 41.658 3.31466 42.3284 3.8899 42.94C4.45982 43.5574 5.08957 44.1168 5.7699 44.61C6.45364 45.0919 7.18 45.5103 7.9399 45.86C9.48324 46.5557 11.1332 46.9851 12.8199 47.13C13.6718 47.2 14.528 47.2 15.3799 47.13C16.2293 47.0709 17.0723 46.9404 17.8999 46.74C18.7283 46.5444 19.5381 46.2767 20.3199 45.94C22.5402 45.0028 24.4524 43.4606 25.8386 41.4891C27.2248 39.5177 28.0291 37.1964 28.1599 34.79V34.83Z" fill="url(#paint0_linear_677_156)"/>
<defs>
<linearGradient id="paint0_linear_677_156" x1="9.1899" y1="1.32" x2="20.2999" y2="45.67" gradientUnits="userSpaceOnUse">
<stop stop-color="#EF4D25"/>
<stop offset="0.92" stop-color="#F5AE2D"/>
<stop offset="0.99" stop-color="#F6B62E"/>
</linearGradient>
</defs>
</svg>
