<svg xmlns="http://www.w3.org/2000/svg" xmlns:xlink="http://www.w3.org/1999/xlink" width="500" zoomAndPan="magnify" viewBox="0 0 375 374.999991" height="500" preserveAspectRatio="xMidYMid meet" version="1.2"><defs><clipPath id="93025da651"><path d="M 0 273 L 375 273 L 375 320.109375 L 0 320.109375 Z M 0 273 "/></clipPath><clipPath id="64cc635468"><path d="M 0 54.609375 L 375 54.609375 L 375 102 L 0 102 Z M 0 54.609375 "/></clipPath></defs><g id="68cc7e95e8"><path style=" stroke:none;fill-rule:nonzero;fill:#000000;fill-opacity:1;" d="M 351.5625 163.945312 L 23.4375 163.945312 C 10.492188 163.945312 0 174.429688 0 187.359375 C 0 200.289062 10.492188 210.773438 23.4375 210.773438 L 351.5625 210.773438 C 364.507812 210.773438 375 200.289062 375 187.359375 C 375 174.429688 364.507812 163.945312 351.5625 163.945312 Z M 351.5625 163.945312 "/><g clip-rule="nonzero" clip-path="url(#93025da651)"><path style=" stroke:none;fill-rule:nonzero;fill:#000000;fill-opacity:1;" d="M 351.5625 273.207031 L 23.4375 273.207031 C 10.492188 273.207031 0 283.6875 0 296.617188 C 0 309.550781 10.492188 320.03125 23.4375 320.03125 L 351.5625 320.03125 C 364.507812 320.03125 375 309.550781 375 296.617188 C 375 283.6875 364.507812 273.207031 351.5625 273.207031 Z M 351.5625 273.207031 "/></g><g clip-rule="nonzero" clip-path="url(#64cc635468)"><path style=" stroke:none;fill-rule:nonzero;fill:#000000;fill-opacity:1;" d="M 23.4375 101.511719 L 351.5625 101.511719 C 364.507812 101.511719 375 91.03125 375 78.101562 C 375 65.167969 364.507812 54.6875 351.5625 54.6875 L 23.4375 54.6875 C 10.492188 54.6875 0 65.167969 0 78.101562 C 0 91.03125 10.492188 101.511719 23.4375 101.511719 Z M 23.4375 101.511719 "/></g></g></svg>