<svg width="222" height="222" viewBox="0 0 222 222" fill="none" xmlns="http://www.w3.org/2000/svg">
<path d="M111 43.2678C108.689 43.2635 106.428 43.9451 104.504 45.2266C102.58 46.508 101.08 48.3315 100.194 50.4661C99.3071 52.6007 99.074 54.9505 99.5238 57.2177C99.9737 59.4849 101.086 61.5676 102.721 63.202C104.355 64.8365 106.438 65.9491 108.705 66.3989C110.972 66.8488 113.322 66.6157 115.457 65.7291C117.591 64.8425 119.415 63.3424 120.696 61.4187C121.978 59.495 122.659 57.2343 122.655 54.9228C122.649 51.8335 121.419 48.8725 119.235 46.688C117.05 44.5035 114.089 43.2737 111 43.2678ZM111 62.6706C109.467 62.675 107.966 62.2244 106.689 61.3757C105.412 60.527 104.416 59.3185 103.826 57.9032C103.236 56.4879 103.08 54.9294 103.376 53.425C103.673 51.9206 104.409 50.538 105.491 49.4522C106.574 48.3664 107.954 47.6263 109.458 47.3256C110.962 47.0248 112.521 47.177 113.938 47.7627C115.355 48.3485 116.566 49.3415 117.418 50.6161C118.271 51.8907 118.726 53.3895 118.726 54.9228C118.726 56.9738 117.912 58.9412 116.464 60.3935C115.016 61.8459 113.051 62.6648 111 62.6706Z" fill="black"/>
<path d="M127.495 149.428H131.424V166.655H127.495V149.428Z" fill="black"/>
<path d="M96.4812 129.892H100.411V149.051H96.4812V129.892Z" fill="black"/>
<path d="M109.046 144.589H112.976V166.389H109.046V144.589Z" fill="black"/>
<path d="M121.634 129.892H125.563V139.483H121.634V129.892Z" fill="black"/>
<path d="M90.4873 114.552H94.4167V124.142H90.4873V114.552Z" fill="black"/>
<path d="M133.311 122.233H137.24V132.29H133.311V122.233Z" fill="black"/>
<path d="M109.046 71.3064H112.976V81.4962H109.046V71.3064Z" fill="black"/>
<path d="M207.17 195.36H199.8V115.44C199.788 111.985 199.096 108.567 197.763 105.38C196.431 102.192 194.483 99.2988 192.032 96.8642C189.581 94.4296 186.674 92.5016 183.478 91.1903C180.282 89.8791 176.859 89.2102 173.404 89.2219H147.83C148.451 75.3025 141.88 67.7545 136.73 64.0471C136.73 63.3811 136.73 62.7151 136.73 62.0047C136.697 57.7951 136.236 53.5999 135.353 49.4839H131.491C132.442 53.5906 132.941 57.7893 132.978 62.0047V64.9573C132.523 70.9388 131.207 76.8233 129.071 82.4287C128.516 83.9605 127.894 85.4923 127.184 87.0241H94.9271C94.2167 85.4923 93.5951 83.9161 93.0401 82.4287C90.9083 76.8219 89.5925 70.938 89.1329 64.9573C89.1329 63.9583 89.1329 62.9815 89.1329 62.0047C89.1329 49.2175 94.4831 35.3647 100.078 24.4645H122.1C125.41 30.7888 128.116 37.4116 130.181 44.2447H134.31C128.138 22.2001 113.375 2.53086 112.598 1.50966C112.412 1.26983 112.172 1.0758 111.899 0.942337C111.626 0.808875 111.326 0.739502 111.022 0.739502C110.718 0.739502 110.418 0.808875 110.145 0.942337C109.872 1.0758 109.633 1.26983 109.446 1.50966C108.469 2.81946 85.1369 33.9439 85.1369 62.0047V64.0471C80.0975 67.7545 73.5263 75.1471 74.1701 89.2219H49.5059C42.544 89.2276 35.8672 91.9882 30.934 96.9007C26.0007 101.813 23.2119 108.478 23.1767 115.44V167.588H27.1283V115.44C27.181 109.538 29.5611 103.895 33.7514 99.7378C37.9417 95.5808 43.6034 93.2457 49.5059 93.2401H74.5919C74.8208 95.1162 75.1618 96.9769 75.6131 98.8123C75.7053 99.2429 75.9435 99.6285 76.2874 99.9036C76.6313 100.179 77.0598 100.326 77.5001 100.322C77.948 100.323 78.3831 100.172 78.734 99.8941C79.085 99.6158 79.3309 99.2265 79.4315 98.7901C79.4315 98.7901 81.8957 88.2673 89.9987 85.4701C92.0433 90.6297 94.5239 95.6057 97.4135 100.344V100.655H53.8349C48.9773 100.667 44.3222 102.603 40.8894 106.04C37.4566 109.477 35.5258 114.134 35.5199 118.992V195.36H27.1283V172.783H23.1767V195.36H15.7397C15.2196 195.366 14.7227 195.577 14.357 195.947C13.9912 196.316 13.7861 196.816 13.7861 197.336C13.7832 200.484 14.4005 203.603 15.6027 206.513C16.8049 209.423 18.5685 212.068 20.7929 214.296C23.0172 216.524 25.6586 218.293 28.5664 219.501C31.4742 220.708 34.5914 221.331 37.7399 221.334H185.215C191.558 221.316 197.636 218.786 202.117 214.296C206.599 209.806 209.118 203.724 209.124 197.38C209.13 197.119 209.084 196.859 208.989 196.616C208.893 196.372 208.751 196.15 208.569 195.962C208.387 195.774 208.17 195.624 207.93 195.521C207.69 195.418 207.432 195.363 207.17 195.36ZM111 6.08286C114.226 10.7239 117.191 15.5414 119.88 20.5129H102.12C104.809 15.5414 107.774 10.7239 111 6.08286ZM78.2327 91.0201C77.1449 79.6759 81.0299 72.8383 85.5587 68.8201C85.5767 68.9378 85.5767 69.0575 85.5587 69.1753C85.7979 71.0791 86.1388 72.9688 86.5799 74.8363C86.6909 75.2581 86.8019 75.7021 86.9351 76.1683C87.3051 77.6483 87.7491 79.1801 88.2671 80.7637C88.2671 81.0745 88.4225 81.4075 88.5335 81.7627C84.0758 83.4726 80.4073 86.7696 78.2327 91.0201ZM133.733 80.6749C134.243 79.1653 134.687 77.6335 135.065 76.2349C135.198 75.7465 135.309 75.2803 135.42 74.8141C135.864 72.9696 136.205 71.1019 136.441 69.2197C136.423 69.0871 136.423 68.9526 136.441 68.8201C140.881 72.9715 144.833 79.8091 143.723 91.0201C141.571 86.7203 137.877 83.3906 133.378 81.6961C133.497 81.3833 133.601 81.0647 133.688 80.7415L133.733 80.6749ZM132.09 85.3813C140.193 88.1341 142.635 98.5681 142.635 98.7013C142.739 99.1358 142.986 99.5228 143.336 99.8005C143.686 100.078 144.119 100.23 144.566 100.233C145.008 100.235 145.438 100.086 145.785 99.8119C146.132 99.5377 146.375 99.154 146.476 98.7235C146.905 96.9146 147.239 95.0842 147.475 93.2401H173.404C179.305 93.2457 184.964 95.5816 189.151 99.7392C193.337 103.897 195.713 109.54 195.76 115.44V195.36H187.457V118.992C187.445 114.123 185.504 109.456 182.059 106.015C178.613 102.574 173.945 100.639 169.075 100.633H124.675C124.675 100.633 124.675 100.455 124.675 100.322C127.532 95.5725 129.997 90.598 132.046 85.4479L132.09 85.3813ZM96.7476 91.0201H125.319C124.12 93.4399 122.833 95.8375 121.367 98.2351H100.677C99.2117 95.7709 97.9241 93.3733 96.7476 91.0201ZM121.612 107.004C121.612 113.93 114.219 123.299 111.022 126.984C107.137 122.544 100.388 113.353 100.388 107.004C100.388 105.36 100.574 103.722 100.943 102.12H121.101C121.446 103.702 121.618 105.318 121.612 106.937V107.004ZM39.4715 119.059C39.4686 117.164 39.84 115.287 40.5644 113.536C41.2888 111.786 42.352 110.195 43.6928 108.856C45.0336 107.518 46.6257 106.457 48.3776 105.735C50.1296 105.014 52.0068 104.645 53.9015 104.651H96.6587C96.5463 105.431 96.4796 106.216 96.4589 107.004C96.4589 117.327 109.046 130.736 109.601 131.291C109.782 131.487 110.002 131.644 110.246 131.751C110.491 131.859 110.755 131.914 111.022 131.914C111.289 131.914 111.553 131.859 111.798 131.751C112.042 131.644 112.262 131.487 112.443 131.291C112.998 130.736 125.541 117.327 125.541 107.004C125.533 106.217 125.482 105.432 125.386 104.651H169.075C172.898 104.651 176.565 106.168 179.271 108.869C181.976 111.571 183.499 115.235 183.505 119.059V195.36H39.4049L39.4715 119.059ZM185.215 217.405H37.7399C32.7557 217.427 27.9429 215.586 24.2463 212.243C20.5497 208.9 18.2362 204.295 17.7599 199.334H205.128C204.653 204.284 202.349 208.879 198.666 212.221C194.984 215.562 190.187 217.411 185.215 217.405Z" fill="black"/>
<path d="M96.792 205.505H126.096V209.435H96.792V205.505Z" fill="black"/>
</svg>
