<svg width="121" height="121" viewBox="0 0 121 121" fill="none" xmlns="http://www.w3.org/2000/svg">
<path fill-rule="evenodd" clip-rule="evenodd" d="M95.8532 34.8781C105.373 34.8781 113.087 42.5914 113.087 52.1117C113.087 61.632 105.373 69.3523 95.8532 69.3523C86.3329 69.3523 78.6125 61.632 78.6125 52.1117C78.6125 42.5914 86.3305 34.8781 95.8532 34.8781Z" fill="#FB8500"/>
<path fill-rule="evenodd" clip-rule="evenodd" d="M86.1453 66.364C81.5937 63.2539 78.6101 58.032 78.6101 52.114C78.6101 49.6883 79.1093 47.3844 80.0117 45.2914L90.5093 52.9179L86.1453 66.364Z" fill="#CB6C00"/>
<path fill-rule="evenodd" clip-rule="evenodd" d="M110.136 42.4648C112.004 45.2211 113.087 48.5375 113.087 52.1117C113.087 61.632 105.373 69.3523 95.853 69.3523C93.1155 69.3523 90.5256 68.7148 88.2264 67.5781C86.3655 64.8219 85.2756 61.5055 85.2756 57.9312C85.2756 48.4109 92.9959 40.6906 102.516 40.6906C105.254 40.693 107.837 41.3305 110.136 42.4648Z" fill="#FFC843"/>
<path fill-rule="evenodd" clip-rule="evenodd" d="M86.6702 64.7351C85.7725 62.6492 85.2756 60.3429 85.2756 57.9312C85.2756 55.2195 85.9061 52.6554 87.017 50.3773L90.5116 52.9156L86.6702 64.7351Z" fill="#BA9231"/>
<path fill-rule="evenodd" clip-rule="evenodd" d="M107.937 57.3664C107.937 50.6961 102.523 45.282 95.8531 45.282C89.1758 45.282 83.7617 50.6961 83.7617 57.3664H107.937Z" fill="#588FDF"/>
<path fill-rule="evenodd" clip-rule="evenodd" d="M86.3515 49.8922C84.7296 51.9523 83.7593 54.5492 83.7593 57.3664H89.0608L90.5093 52.9156L86.3515 49.8922Z" fill="#4068A3"/>
<path fill-rule="evenodd" clip-rule="evenodd" d="M93.0618 57.3664H96.4297L98.3422 51.9054C98.6422 51.0547 98.1899 50.1242 97.3391 49.8265C96.4813 49.5265 95.5508 49.9789 95.2532 50.8297L93.1461 56.8297C93.0876 57.0078 93.0618 57.1953 93.0618 57.3664Z" fill="white"/>
<path fill-rule="evenodd" clip-rule="evenodd" d="M24.8585 34.8781C34.3789 34.8781 42.0992 42.5914 42.0992 52.1117C42.0992 61.632 34.3789 69.3523 24.8585 69.3523C15.3382 69.3523 7.61792 61.632 7.61792 52.1117C7.61792 42.5914 15.3359 34.8781 24.8585 34.8781Z" fill="#FB8500"/>
<path fill-rule="evenodd" clip-rule="evenodd" d="M39.4999 43.018C41.1405 45.6547 42.0968 48.7719 42.0968 52.1141C42.0968 61.6344 34.3765 69.3547 24.8562 69.3547C21.7929 69.3547 18.9101 68.5508 16.4187 67.1492C14.778 64.5125 13.8218 61.3883 13.8218 58.0531C13.8218 48.5328 21.5421 40.8125 31.0624 40.8125C34.1257 40.8125 37.0085 41.6164 39.4999 43.018Z" fill="#FFC843"/>
<path fill-rule="evenodd" clip-rule="evenodd" d="M40.6883 45.2891C41.593 47.382 42.0969 49.6883 42.0969 52.1117C42.0969 58.032 39.1063 63.2539 34.5618 66.3617L30.1907 52.9156L40.6883 45.2891Z" fill="#BA9231"/>
<path d="M14.8649 58.0391C14.2274 58.6766 13.1915 58.6766 12.547 58.0391C11.9095 57.3945 11.9095 56.3586 12.547 55.7211L20.4524 47.8156C21.097 47.1711 22.1329 47.1711 22.7704 47.8156C22.904 47.9422 23.0095 48.0945 23.0892 48.2539L26.0728 53.4219L31.7259 47.7758L29.9657 47.3047C29.0962 47.0727 28.5782 46.168 28.8103 45.2985C29.0423 44.4219 29.9399 43.9039 30.8165 44.1359L35.2345 45.3242C35.5345 45.3852 35.8181 45.5305 36.0524 45.7625C36.2868 45.9945 36.4321 46.2805 36.4978 46.5805L37.5876 50.6586C37.8196 51.5352 37.3017 52.4328 36.4321 52.6649C35.5556 52.9039 34.6579 52.3789 34.4259 51.5094L34.0462 50.0938L26.8837 57.2492C26.7829 57.35 26.6704 57.4344 26.5438 57.5094C25.761 57.9617 24.7626 57.6945 24.3056 56.9117L21.2634 51.6406L14.8649 58.0391Z" fill="white"/>
<path d="M36.889 48.0523L37.5874 50.6562C37.8194 51.5328 37.3015 52.4305 36.4319 52.6625C35.5554 52.9016 34.6577 52.3766 34.4257 51.507L34.053 50.1195L36.889 48.0523ZM33.9335 50.1992L30.446 53.6867L30.1929 52.9156L33.9335 50.1992Z" fill="#BABABA"/>
<path fill-rule="evenodd" clip-rule="evenodd" d="M38.8813 76.3695C48.5142 76.3695 56.3142 84.1766 56.3142 93.8024C56.3142 103.428 48.5142 111.235 38.8813 111.235C29.2556 111.235 21.4556 103.428 21.4556 93.8024C21.4556 84.1766 29.2556 76.3695 38.8813 76.3695Z" fill="#4B77BD"/>
<path fill-rule="evenodd" clip-rule="evenodd" d="M38.8813 76.3695C46.6157 76.3695 53.1712 81.4063 55.4517 88.3672H41.7126L37.8267 76.4024C38.1782 76.3813 38.5298 76.3695 38.8813 76.3695Z" fill="#37568A"/>
<path fill-rule="evenodd" clip-rule="evenodd" d="M55.0133 87.1836C55.8571 89.2227 56.3165 91.4563 56.3165 93.8C56.3165 103.426 48.5165 111.233 38.8836 111.233C35.3891 111.233 32.1266 110.197 29.3961 108.423C28.5594 106.384 28.093 104.15 28.093 101.806C28.093 92.1805 35.9 84.3734 45.5258 84.3734C49.0274 84.3734 52.2829 85.4047 55.0133 87.1836Z" fill="#588FDF"/>
<path fill-rule="evenodd" clip-rule="evenodd" d="M55.0133 87.1836C55.1727 87.568 55.318 87.9664 55.4516 88.3672H41.7125L40.6438 85.0649C42.1907 84.6195 43.8336 84.3734 45.5258 84.3734C49.0274 84.3734 52.2829 85.4047 55.0133 87.1836Z" fill="#4068A3"/>
<path d="M31.0954 84.9781C30.2915 84.5727 29.9727 83.5906 30.3852 82.7867C30.7977 81.9828 31.7797 81.6641 32.5836 82.0766L36.1438 83.9047C36.5165 84.0711 36.8282 84.3828 36.9875 84.7953C37.0602 84.9875 37.093 85.1938 37.093 85.3859H37.1001V89.1992C37.1001 90.1039 36.3688 90.8398 35.4594 90.8398C34.5547 90.8398 33.8188 90.1016 33.8188 89.1992V88.2359C33.2797 88.6953 32.8016 89.2203 32.4032 89.8039C31.5407 91.0672 31.0344 92.5883 31.0344 94.2359C31.0344 95.8836 31.5383 97.4117 32.4032 98.675C33.2938 99.9711 34.5618 100.993 36.05 101.565C36.8938 101.891 37.3133 102.84 36.9875 103.684C36.6618 104.52 35.7125 104.94 34.8758 104.614C32.7641 103.796 30.9618 102.355 29.7008 100.522C28.4727 98.7289 27.7532 96.568 27.7532 94.2359C27.7532 91.9109 28.4704 89.7523 29.7008 87.957C30.3524 87.0125 31.1422 86.1687 32.0399 85.4656L31.0954 84.9781ZM39.8446 99.4484C39.6594 98.5648 40.2243 97.6953 41.1079 97.5078C41.9985 97.3227 42.868 97.8875 43.0555 98.7711L43.454 100.625C44.1969 100.093 44.8485 99.4297 45.3665 98.6727C46.2313 97.4094 46.7352 95.8813 46.7352 94.2336C46.7352 92.5859 46.2313 91.0648 45.3665 89.8016C44.4758 88.4984 43.2079 87.4836 41.7196 86.9117C40.8758 86.5859 40.4563 85.6367 40.7821 84.793C41.1079 83.9492 42.0571 83.5297 42.8938 83.8555C45.0055 84.6734 46.8079 86.1148 48.0688 87.9547C49.2922 89.7477 50.0094 91.9086 50.0094 94.2336C50.0094 96.5656 49.2922 98.7242 48.0688 100.52C47.5766 101.237 47 101.895 46.3555 102.479L46.4094 102.493C47.286 102.725 47.804 103.623 47.5719 104.499C47.3399 105.376 46.4422 105.894 45.5657 105.662L41.886 104.673C41.3071 104.52 40.836 104.054 40.7024 103.43L39.8446 99.4484Z" fill="white"/>
<path d="M48.3358 88.3672H44.103C43.4046 87.7484 42.6007 87.2516 41.7171 86.9117C41.471 86.818 41.2647 86.6726 41.1054 86.4922L40.6812 85.1891C40.6952 85.0555 40.728 84.9242 40.7819 84.7906C41.1077 83.9469 42.0569 83.5273 42.8937 83.8531C45.0054 84.6711 46.8077 86.1125 48.0687 87.9523C48.1624 88.0953 48.2491 88.2266 48.3358 88.3672Z" fill="#BABABA"/>
<path fill-rule="evenodd" clip-rule="evenodd" d="M81.821 76.3695C91.4468 76.3695 99.2538 84.1766 99.2538 93.8024C99.2538 103.428 91.4468 111.235 81.821 111.235C72.1952 111.235 64.3882 103.428 64.3882 93.8024C64.3882 84.1766 72.1929 76.3695 81.821 76.3695Z" fill="#4B77BD"/>
<path fill-rule="evenodd" clip-rule="evenodd" d="M81.8211 76.3695C82.1797 76.3695 82.5313 76.3836 82.8782 76.4024L78.9922 88.3672H65.2532C67.536 81.4039 74.0868 76.3695 81.8211 76.3695Z" fill="#37568A"/>
<path fill-rule="evenodd" clip-rule="evenodd" d="M96.9289 85.0977C98.4102 87.6617 99.2539 90.6312 99.2539 93.8C99.2539 103.426 91.4469 111.233 81.8211 111.233C78.8258 111.233 76.0016 110.476 73.5359 109.14C72.0547 106.576 71.2109 103.606 71.2109 100.438C71.2109 90.8117 79.018 83.0117 88.6437 83.0117C91.6391 83.0117 94.4633 83.7688 96.9289 85.0977Z" fill="#588FDF"/>
<path fill-rule="evenodd" clip-rule="evenodd" d="M79.5358 84.7203C81.0569 84.3359 82.6249 84.3476 84.1062 84.7203L85.4679 82.3625L89.9069 84.9266L88.5452 87.2773C89.0702 87.8211 89.5343 88.4328 89.9327 89.1172C90.3241 89.8016 90.6241 90.5117 90.8304 91.2359H93.5468V96.3594H90.8304C90.4108 97.8266 89.6421 99.1953 88.5452 100.325L89.9069 102.676L85.4679 105.24L84.1062 102.882C82.5851 103.266 81.0171 103.255 79.5358 102.882L78.1741 105.24L73.7351 102.676L75.0968 100.325C74.5718 99.7812 74.1077 99.1625 73.7093 98.4851C73.3179 97.8008 73.0179 97.0906 72.8116 96.3594H70.0952V91.2383H72.8116C73.2312 89.7711 74.0069 88.407 75.0968 87.2797L73.7351 84.9289L78.1741 82.3648L79.5358 84.7203Z" fill="#FB8500"/>
<path fill-rule="evenodd" clip-rule="evenodd" d="M79.536 84.7203C79.761 84.6594 79.9954 84.6148 80.2274 84.575L78.9922 88.3695H74.1946C74.4665 87.9898 74.7665 87.6266 75.0993 87.2797L73.7375 84.9289L78.1766 82.3648L79.536 84.7203Z" fill="#B76100"/>
<path fill-rule="evenodd" clip-rule="evenodd" d="M81.8211 88.9461C84.5047 88.9461 86.6773 91.1188 86.6773 93.8024C86.6773 96.4859 84.5047 98.6586 81.8211 98.6586C79.1375 98.6586 76.9648 96.4859 76.9648 93.8024C76.9648 91.1188 79.1375 88.9461 81.8211 88.9461Z" fill="white"/>
<path fill-rule="evenodd" clip-rule="evenodd" d="M60.3546 7.38123C69.8749 7.38123 77.5882 15.0945 77.5882 24.6148C77.5882 34.1351 69.8749 41.8554 60.3546 41.8554C50.8343 41.8554 43.114 34.1351 43.114 24.6148C43.114 15.0945 50.8343 7.38123 60.3546 7.38123Z" fill="#4B77BD"/>
<path fill-rule="evenodd" clip-rule="evenodd" d="M70.6204 38.4664C67.7493 40.5922 64.2032 41.8555 60.3547 41.8555C56.5063 41.8555 52.9532 40.5922 50.0891 38.4664L60.3547 31.0063L70.6204 38.4664Z" fill="#37568A"/>
<path fill-rule="evenodd" clip-rule="evenodd" d="M74.2999 14.4828C76.3671 17.3258 77.5882 20.8273 77.5882 24.6148C77.5882 34.1351 69.8749 41.8554 60.3546 41.8554C58.3343 41.8554 56.396 41.5039 54.5937 40.8664C52.5218 38.0234 51.2983 34.5219 51.2983 30.7344C51.2983 21.214 59.0186 13.4937 68.539 13.4937C70.5593 13.4914 72.4999 13.8453 74.2999 14.4828Z" fill="#588FDF"/>
<path fill-rule="evenodd" clip-rule="evenodd" d="M70.6203 38.4664C67.7492 40.5922 64.2031 41.8555 60.3546 41.8555C58.3343 41.8555 56.396 41.5039 54.5937 40.8664C53.6914 39.6242 52.946 38.2555 52.3953 36.7883L60.3546 31.0086L70.6203 38.4664Z" fill="#4068A3"/>
<path d="M61.8219 27.8422C61.1047 27.2047 61.0437 26.1078 61.6812 25.3977C62.3187 24.6805 63.4156 24.6195 64.1328 25.257L70.8828 31.2828C71.5929 31.9203 71.6539 33.0172 71.0164 33.7344C70.3789 34.4445 69.282 34.5125 68.5719 33.868L61.8219 27.8422Z" fill="#FB8500"/>
<path fill-rule="evenodd" clip-rule="evenodd" d="M60.3547 34.9977L73.3367 44.4266L86.3187 53.8601L81.3547 69.1203L76.4 84.3805H60.3547H44.3094L39.3477 69.1203L34.3906 53.8601L47.3727 44.4266L60.3547 34.9977Z" fill="#09A94F"/>
<path fill-rule="evenodd" clip-rule="evenodd" d="M68.6117 40.9977L73.3367 44.4266L86.3187 53.8602L81.3546 69.1203L76.4 84.3805H60.3546H55.2312L51.3382 72.4086L46.3835 57.1484L59.3656 47.7148L68.6117 40.9977Z" fill="#0BDA64"/>
<path d="M67.564 59.1008H78.5468C79.4515 59.1008 80.1875 59.8391 80.1875 60.7414C80.1875 61.6508 79.4492 62.382 78.5468 62.382H73.6109C74.3492 63.5117 74.7734 64.8594 74.7734 66.3078C74.7734 68.3 73.9695 70.1023 72.6664 71.4101C71.3586 72.7133 69.5562 73.5172 67.564 73.5172C65.5765 73.5172 63.7695 72.7133 62.4687 71.4101C61.1656 70.1023 60.357 68.3 60.357 66.3078C60.357 64.3203 61.1679 62.5133 62.4687 61.2125C63.7695 59.9117 65.5765 59.1008 67.564 59.1008ZM70.339 63.5328C69.6289 62.8227 68.6515 62.3844 67.5617 62.3844C66.4789 62.3844 65.4945 62.8227 64.7843 63.5328C64.0742 64.243 63.6359 65.2273 63.6359 66.3102C63.6359 67.4 64.0742 68.3773 64.7843 69.0875C65.4945 69.7977 66.4789 70.2359 67.5617 70.2359C68.6515 70.2359 69.6289 69.7977 70.339 69.0875C71.0492 68.3773 71.4945 67.4 71.4945 66.3102C71.4968 65.2273 71.0515 64.243 70.339 63.5328ZM59.4851 54.5445C59.9562 55.3156 59.7101 56.3258 58.9414 56.7969C58.1703 57.268 57.1601 57.0219 56.689 56.2531C56.1968 55.4492 55.5453 54.9453 54.8281 54.7062C54.2843 54.5211 53.6914 54.4742 53.1007 54.5609C52.4773 54.6477 51.8585 54.8727 51.2867 55.2242C50.3164 55.8219 49.4984 56.7664 49.0671 57.9945C48.9335 58.4398 48.814 58.9391 48.7156 59.4758C49.5593 58.9977 50.464 58.693 51.3734 58.5523C52.5968 58.3672 53.8437 58.4797 54.9734 58.9109C56.0773 59.3234 57.0593 60.0266 57.7976 61.0297C58.9132 62.5367 59.4382 64.1656 59.4921 65.7195C59.532 66.9359 59.2859 68.0984 58.8148 69.1203C58.3296 70.1633 57.5984 71.068 56.682 71.7453C55.6578 72.4953 54.4109 72.9617 53.021 73.0086C52.1164 73.0414 51.3078 72.943 50.5765 72.7227C48.5773 72.125 47.2273 70.7305 46.3648 68.9281C45.746 67.6461 45.3945 66.1578 45.2421 64.6297C45.1554 64.3766 45.1367 64.1047 45.1812 63.8328C45.1742 63.6992 45.1671 63.5726 45.1625 63.4484C45.0828 61.1164 45.4226 58.7656 45.9335 57.043L45.9546 56.982C46.639 54.9687 47.982 53.4078 49.5828 52.4234C50.532 51.8445 51.582 51.4602 52.639 51.3148C53.7289 51.1555 54.8375 51.2422 55.8804 51.6008C57.2914 52.0789 58.5617 53.0422 59.4851 54.5445ZM48.4882 64.2898C48.6078 65.4734 48.8609 66.5891 49.3062 67.5195C49.7843 68.5156 50.4945 69.2726 51.5117 69.5797C51.9242 69.6992 52.3882 69.7602 52.9132 69.7461C53.6117 69.7203 54.2281 69.4859 54.7343 69.1156C55.1984 68.7711 55.5781 68.2977 55.8382 67.7398C56.1101 67.1609 56.2437 66.5047 56.2226 65.8273C56.1898 64.9039 55.864 63.9148 55.1726 62.9773C54.821 62.5062 54.35 62.1734 53.825 61.9742C53.2273 61.7492 52.5429 61.6883 51.8585 61.7937C51.1554 61.8992 50.471 62.1781 49.871 62.6187C49.3132 63.0289 48.8281 63.5867 48.4882 64.2898Z" fill="white"/>
<path fill-rule="evenodd" clip-rule="evenodd" d="M56.3352 14.6609C60.3875 13.5711 64.5477 15.9758 65.6376 20.0234C66.7204 24.0758 64.3157 28.2359 60.2704 29.3258C56.218 30.4086 52.0579 28.0039 50.968 23.9586C49.8852 19.9039 52.2899 15.7437 56.3352 14.6609Z" fill="white"/>
</svg>
